G04 #@! TF.GenerationSoftware,KiCad,Pcbnew,(5.1.8)-1*
G04 #@! TF.CreationDate,2021-01-31T20:23:03-05:00*
G04 #@! TF.ProjectId,TTL_Logic_Clock_revA,54544c5f-4c6f-4676-9963-5f436c6f636b,rev?*
G04 #@! TF.SameCoordinates,Original*
G04 #@! TF.FileFunction,Soldermask,Top*
G04 #@! TF.FilePolarity,Negative*
%FSLAX46Y46*%
G04 Gerber Fmt 4.6, Leading zero omitted, Abs format (unit mm)*
G04 Created by KiCad (PCBNEW (5.1.8)-1) date 2021-01-31 20:23:03*
%MOMM*%
%LPD*%
G01*
G04 APERTURE LIST*
%ADD10O,1.502000X1.502000*%
%ADD11C,1.502000*%
%ADD12O,1.702000X1.702000*%
%ADD13O,1.802000X1.802000*%
%ADD14C,6.502000*%
%ADD15C,1.902000*%
%ADD16C,1.702000*%
%ADD17O,1.626000X2.626000*%
G04 APERTURE END LIST*
D10*
X104394000Y-128651000D03*
D11*
X104394000Y-123571000D03*
D10*
X101473000Y-128651000D03*
D11*
X101473000Y-123571000D03*
D12*
X153045000Y-93980000D03*
X145425000Y-109220000D03*
X153045000Y-96520000D03*
X145425000Y-106680000D03*
X153045000Y-99060000D03*
X145425000Y-104140000D03*
X153045000Y-101600000D03*
X145425000Y-101600000D03*
X153045000Y-104140000D03*
X145425000Y-99060000D03*
X153045000Y-106680000D03*
X145425000Y-96520000D03*
X153045000Y-109220000D03*
G36*
G01*
X144574000Y-94780000D02*
X144574000Y-93180000D01*
G75*
G02*
X144625000Y-93129000I51000J0D01*
G01*
X146225000Y-93129000D01*
G75*
G02*
X146276000Y-93180000I0J-51000D01*
G01*
X146276000Y-94780000D01*
G75*
G02*
X146225000Y-94831000I-51000J0D01*
G01*
X144625000Y-94831000D01*
G75*
G02*
X144574000Y-94780000I0J51000D01*
G01*
G37*
X138694000Y-93980000D03*
X131074000Y-109220000D03*
X138694000Y-96520000D03*
X131074000Y-106680000D03*
X138694000Y-99060000D03*
X131074000Y-104140000D03*
X138694000Y-101600000D03*
X131074000Y-101600000D03*
X138694000Y-104140000D03*
X131074000Y-99060000D03*
X138694000Y-106680000D03*
X131074000Y-96520000D03*
X138694000Y-109220000D03*
G36*
G01*
X130223000Y-94780000D02*
X130223000Y-93180000D01*
G75*
G02*
X130274000Y-93129000I51000J0D01*
G01*
X131874000Y-93129000D01*
G75*
G02*
X131925000Y-93180000I0J-51000D01*
G01*
X131925000Y-94780000D01*
G75*
G02*
X131874000Y-94831000I-51000J0D01*
G01*
X130274000Y-94831000D01*
G75*
G02*
X130223000Y-94780000I0J51000D01*
G01*
G37*
G36*
G01*
X112062000Y-94780000D02*
X112062000Y-93180000D01*
G75*
G02*
X112113000Y-93129000I51000J0D01*
G01*
X113713000Y-93129000D01*
G75*
G02*
X113764000Y-93180000I0J-51000D01*
G01*
X113764000Y-94780000D01*
G75*
G02*
X113713000Y-94831000I-51000J0D01*
G01*
X112113000Y-94831000D01*
G75*
G02*
X112062000Y-94780000I0J51000D01*
G01*
G37*
X120533000Y-109220000D03*
X112913000Y-96520000D03*
X120533000Y-106680000D03*
X112913000Y-99060000D03*
X120533000Y-104140000D03*
X112913000Y-101600000D03*
X120533000Y-101600000D03*
X112913000Y-104140000D03*
X120533000Y-99060000D03*
X112913000Y-106680000D03*
X120533000Y-96520000D03*
X112913000Y-109220000D03*
X120533000Y-93980000D03*
X153045000Y-69596000D03*
X145425000Y-87376000D03*
X153045000Y-72136000D03*
X145425000Y-84836000D03*
X153045000Y-74676000D03*
X145425000Y-82296000D03*
X153045000Y-77216000D03*
X145425000Y-79756000D03*
X153045000Y-79756000D03*
X145425000Y-77216000D03*
X153045000Y-82296000D03*
X145425000Y-74676000D03*
X153045000Y-84836000D03*
X145425000Y-72136000D03*
X153045000Y-87376000D03*
G36*
G01*
X144574000Y-70396000D02*
X144574000Y-68796000D01*
G75*
G02*
X144625000Y-68745000I51000J0D01*
G01*
X146225000Y-68745000D01*
G75*
G02*
X146276000Y-68796000I0J-51000D01*
G01*
X146276000Y-70396000D01*
G75*
G02*
X146225000Y-70447000I-51000J0D01*
G01*
X144625000Y-70447000D01*
G75*
G02*
X144574000Y-70396000I0J51000D01*
G01*
G37*
X138694000Y-69596000D03*
X131074000Y-87376000D03*
X138694000Y-72136000D03*
X131074000Y-84836000D03*
X138694000Y-74676000D03*
X131074000Y-82296000D03*
X138694000Y-77216000D03*
X131074000Y-79756000D03*
X138694000Y-79756000D03*
X131074000Y-77216000D03*
X138694000Y-82296000D03*
X131074000Y-74676000D03*
X138694000Y-84836000D03*
X131074000Y-72136000D03*
X138694000Y-87376000D03*
G36*
G01*
X130223000Y-70396000D02*
X130223000Y-68796000D01*
G75*
G02*
X130274000Y-68745000I51000J0D01*
G01*
X131874000Y-68745000D01*
G75*
G02*
X131925000Y-68796000I0J-51000D01*
G01*
X131925000Y-70396000D01*
G75*
G02*
X131874000Y-70447000I-51000J0D01*
G01*
X130274000Y-70447000D01*
G75*
G02*
X130223000Y-70396000I0J51000D01*
G01*
G37*
X120533000Y-69596000D03*
X112913000Y-87376000D03*
X120533000Y-72136000D03*
X112913000Y-84836000D03*
X120533000Y-74676000D03*
X112913000Y-82296000D03*
X120533000Y-77216000D03*
X112913000Y-79756000D03*
X120533000Y-79756000D03*
X112913000Y-77216000D03*
X120533000Y-82296000D03*
X112913000Y-74676000D03*
X120533000Y-84836000D03*
X112913000Y-72136000D03*
X120533000Y-87376000D03*
G36*
G01*
X112062000Y-70396000D02*
X112062000Y-68796000D01*
G75*
G02*
X112113000Y-68745000I51000J0D01*
G01*
X113713000Y-68745000D01*
G75*
G02*
X113764000Y-68796000I0J-51000D01*
G01*
X113764000Y-70396000D01*
G75*
G02*
X113713000Y-70447000I-51000J0D01*
G01*
X112113000Y-70447000D01*
G75*
G02*
X112062000Y-70396000I0J51000D01*
G01*
G37*
G36*
G01*
X97711000Y-70396000D02*
X97711000Y-68796000D01*
G75*
G02*
X97762000Y-68745000I51000J0D01*
G01*
X99362000Y-68745000D01*
G75*
G02*
X99413000Y-68796000I0J-51000D01*
G01*
X99413000Y-70396000D01*
G75*
G02*
X99362000Y-70447000I-51000J0D01*
G01*
X97762000Y-70447000D01*
G75*
G02*
X97711000Y-70396000I0J51000D01*
G01*
G37*
X106182000Y-87376000D03*
X98562000Y-72136000D03*
X106182000Y-84836000D03*
X98562000Y-74676000D03*
X106182000Y-82296000D03*
X98562000Y-77216000D03*
X106182000Y-79756000D03*
X98562000Y-79756000D03*
X106182000Y-77216000D03*
X98562000Y-82296000D03*
X106182000Y-74676000D03*
X98562000Y-84836000D03*
X106182000Y-72136000D03*
X98562000Y-87376000D03*
X106182000Y-69596000D03*
G36*
G01*
X79550000Y-94780000D02*
X79550000Y-93180000D01*
G75*
G02*
X79601000Y-93129000I51000J0D01*
G01*
X81201000Y-93129000D01*
G75*
G02*
X81252000Y-93180000I0J-51000D01*
G01*
X81252000Y-94780000D01*
G75*
G02*
X81201000Y-94831000I-51000J0D01*
G01*
X79601000Y-94831000D01*
G75*
G02*
X79550000Y-94780000I0J51000D01*
G01*
G37*
X88021000Y-111760000D03*
X80401000Y-96520000D03*
X88021000Y-109220000D03*
X80401000Y-99060000D03*
X88021000Y-106680000D03*
X80401000Y-101600000D03*
X88021000Y-104140000D03*
X80401000Y-104140000D03*
X88021000Y-101600000D03*
X80401000Y-106680000D03*
X88021000Y-99060000D03*
X80401000Y-109220000D03*
X88021000Y-96520000D03*
X80401000Y-111760000D03*
X88021000Y-93980000D03*
X88021000Y-69596000D03*
X80401000Y-87376000D03*
X88021000Y-72136000D03*
X80401000Y-84836000D03*
X88021000Y-74676000D03*
X80401000Y-82296000D03*
X88021000Y-77216000D03*
X80401000Y-79756000D03*
X88021000Y-79756000D03*
X80401000Y-77216000D03*
X88021000Y-82296000D03*
X80401000Y-74676000D03*
X88021000Y-84836000D03*
X80401000Y-72136000D03*
X88021000Y-87376000D03*
G36*
G01*
X79550000Y-70396000D02*
X79550000Y-68796000D01*
G75*
G02*
X79601000Y-68745000I51000J0D01*
G01*
X81201000Y-68745000D01*
G75*
G02*
X81252000Y-68796000I0J-51000D01*
G01*
X81252000Y-70396000D01*
G75*
G02*
X81201000Y-70447000I-51000J0D01*
G01*
X79601000Y-70447000D01*
G75*
G02*
X79550000Y-70396000I0J51000D01*
G01*
G37*
X73670000Y-69596000D03*
X66050000Y-87376000D03*
X73670000Y-72136000D03*
X66050000Y-84836000D03*
X73670000Y-74676000D03*
X66050000Y-82296000D03*
X73670000Y-77216000D03*
X66050000Y-79756000D03*
X73670000Y-79756000D03*
X66050000Y-77216000D03*
X73670000Y-82296000D03*
X66050000Y-74676000D03*
X73670000Y-84836000D03*
X66050000Y-72136000D03*
X73670000Y-87376000D03*
G36*
G01*
X65199000Y-70396000D02*
X65199000Y-68796000D01*
G75*
G02*
X65250000Y-68745000I51000J0D01*
G01*
X66850000Y-68745000D01*
G75*
G02*
X66901000Y-68796000I0J-51000D01*
G01*
X66901000Y-70396000D01*
G75*
G02*
X66850000Y-70447000I-51000J0D01*
G01*
X65250000Y-70447000D01*
G75*
G02*
X65199000Y-70396000I0J51000D01*
G01*
G37*
X106182000Y-93980000D03*
X98562000Y-109220000D03*
X106182000Y-96520000D03*
X98562000Y-106680000D03*
X106182000Y-99060000D03*
X98562000Y-104140000D03*
X106182000Y-101600000D03*
X98562000Y-101600000D03*
X106182000Y-104140000D03*
X98562000Y-99060000D03*
X106182000Y-106680000D03*
X98562000Y-96520000D03*
X106182000Y-109220000D03*
G36*
G01*
X97711000Y-94780000D02*
X97711000Y-93180000D01*
G75*
G02*
X97762000Y-93129000I51000J0D01*
G01*
X99362000Y-93129000D01*
G75*
G02*
X99413000Y-93180000I0J-51000D01*
G01*
X99413000Y-94780000D01*
G75*
G02*
X99362000Y-94831000I-51000J0D01*
G01*
X97762000Y-94831000D01*
G75*
G02*
X97711000Y-94780000I0J51000D01*
G01*
G37*
G36*
G01*
X80550000Y-115735000D02*
X82150000Y-115735000D01*
G75*
G02*
X82201000Y-115786000I0J-51000D01*
G01*
X82201000Y-117386000D01*
G75*
G02*
X82150000Y-117437000I-51000J0D01*
G01*
X80550000Y-117437000D01*
G75*
G02*
X80499000Y-117386000I0J51000D01*
G01*
X80499000Y-115786000D01*
G75*
G02*
X80550000Y-115735000I51000J0D01*
G01*
G37*
X66110000Y-124206000D03*
X78810000Y-116586000D03*
X68650000Y-124206000D03*
X76270000Y-116586000D03*
X71190000Y-124206000D03*
X73730000Y-116586000D03*
X73730000Y-124206000D03*
X71190000Y-116586000D03*
X76270000Y-124206000D03*
X68650000Y-116586000D03*
X78810000Y-124206000D03*
X66110000Y-116586000D03*
X81350000Y-124206000D03*
G36*
G01*
X65199000Y-94780000D02*
X65199000Y-93180000D01*
G75*
G02*
X65250000Y-93129000I51000J0D01*
G01*
X66850000Y-93129000D01*
G75*
G02*
X66901000Y-93180000I0J-51000D01*
G01*
X66901000Y-94780000D01*
G75*
G02*
X66850000Y-94831000I-51000J0D01*
G01*
X65250000Y-94831000D01*
G75*
G02*
X65199000Y-94780000I0J51000D01*
G01*
G37*
X73670000Y-109220000D03*
X66050000Y-96520000D03*
X73670000Y-106680000D03*
X66050000Y-99060000D03*
X73670000Y-104140000D03*
X66050000Y-101600000D03*
X73670000Y-101600000D03*
X66050000Y-104140000D03*
X73670000Y-99060000D03*
X66050000Y-106680000D03*
X73670000Y-96520000D03*
X66050000Y-109220000D03*
X73670000Y-93980000D03*
D10*
X125857000Y-53721000D03*
D11*
X125857000Y-58801000D03*
D10*
X125857000Y-41783000D03*
D11*
X125857000Y-36703000D03*
D10*
X93345000Y-53721000D03*
D11*
X93345000Y-58801000D03*
D10*
X93345000Y-41910000D03*
D11*
X93345000Y-36830000D03*
D10*
X144145000Y-47752000D03*
D11*
X144145000Y-42672000D03*
D10*
X146685000Y-47752000D03*
D11*
X146685000Y-42672000D03*
D10*
X144145000Y-63754000D03*
D11*
X144145000Y-58674000D03*
D10*
X146685000Y-63754000D03*
D11*
X146685000Y-58674000D03*
D10*
X151765000Y-63754000D03*
D11*
X151765000Y-58674000D03*
D10*
X154305000Y-47752000D03*
D11*
X154305000Y-42672000D03*
D10*
X151765000Y-47752000D03*
D11*
X151765000Y-42672000D03*
D10*
X129794000Y-47752000D03*
D11*
X129794000Y-42672000D03*
D10*
X132334000Y-47752000D03*
D11*
X132334000Y-42672000D03*
D10*
X129794000Y-63754000D03*
D11*
X129794000Y-58674000D03*
D10*
X132334000Y-63754000D03*
D11*
X132334000Y-58674000D03*
D10*
X137414000Y-63754000D03*
D11*
X137414000Y-58674000D03*
D10*
X139954000Y-47752000D03*
D11*
X139954000Y-42672000D03*
D10*
X137414000Y-47752000D03*
D11*
X137414000Y-42672000D03*
D10*
X111633000Y-47752000D03*
D11*
X111633000Y-42672000D03*
D10*
X114173000Y-47752000D03*
D11*
X114173000Y-42672000D03*
X111633000Y-58674000D03*
D10*
X111633000Y-63754000D03*
D11*
X114173000Y-58674000D03*
D10*
X114173000Y-63754000D03*
D11*
X119253000Y-58674000D03*
D10*
X119253000Y-63754000D03*
X121793000Y-47752000D03*
D11*
X121793000Y-42672000D03*
D10*
X119253000Y-47752000D03*
D11*
X119253000Y-42672000D03*
D10*
X97282000Y-47752000D03*
D11*
X97282000Y-42672000D03*
D10*
X99822000Y-47752000D03*
D11*
X99822000Y-42672000D03*
D10*
X97282000Y-63754000D03*
D11*
X97282000Y-58674000D03*
D10*
X99822000Y-63754000D03*
D11*
X99822000Y-58674000D03*
D10*
X104902000Y-63754000D03*
D11*
X104902000Y-58674000D03*
D10*
X107442000Y-47752000D03*
D11*
X107442000Y-42672000D03*
D10*
X104902000Y-47752000D03*
D11*
X104902000Y-42672000D03*
D10*
X79121000Y-47752000D03*
D11*
X79121000Y-42672000D03*
D10*
X81661000Y-47752000D03*
D11*
X81661000Y-42672000D03*
D10*
X79121000Y-63754000D03*
D11*
X79121000Y-58674000D03*
D10*
X81661000Y-63754000D03*
D11*
X81661000Y-58674000D03*
D10*
X86741000Y-63754000D03*
D11*
X86741000Y-58674000D03*
D10*
X89281000Y-47752000D03*
D11*
X89281000Y-42672000D03*
D10*
X86741000Y-47752000D03*
D11*
X86741000Y-42672000D03*
D10*
X64770000Y-47752000D03*
D11*
X64770000Y-42672000D03*
D10*
X67310000Y-47752000D03*
D11*
X67310000Y-42672000D03*
X64770000Y-58674000D03*
D10*
X64770000Y-63754000D03*
D11*
X67310000Y-58674000D03*
D10*
X67310000Y-63754000D03*
D11*
X72390000Y-58674000D03*
D10*
X72390000Y-63754000D03*
X74930000Y-47752000D03*
D11*
X74930000Y-42672000D03*
D10*
X72390000Y-47752000D03*
D11*
X72390000Y-42672000D03*
D13*
X151638000Y-125730000D03*
X151638000Y-123190000D03*
X151638000Y-120650000D03*
G36*
G01*
X150737000Y-118960000D02*
X150737000Y-117260000D01*
G75*
G02*
X150788000Y-117209000I51000J0D01*
G01*
X152488000Y-117209000D01*
G75*
G02*
X152539000Y-117260000I0J-51000D01*
G01*
X152539000Y-118960000D01*
G75*
G02*
X152488000Y-119011000I-51000J0D01*
G01*
X150788000Y-119011000D01*
G75*
G02*
X150737000Y-118960000I0J51000D01*
G01*
G37*
D14*
X158623000Y-127127000D03*
X60452000Y-127127000D03*
X158623000Y-34925000D03*
X60452000Y-34925000D03*
G36*
G01*
X124957000Y-47944000D02*
X126757000Y-47944000D01*
G75*
G02*
X126808000Y-47995000I0J-51000D01*
G01*
X126808000Y-49795000D01*
G75*
G02*
X126757000Y-49846000I-51000J0D01*
G01*
X124957000Y-49846000D01*
G75*
G02*
X124906000Y-49795000I0J51000D01*
G01*
X124906000Y-47995000D01*
G75*
G02*
X124957000Y-47944000I51000J0D01*
G01*
G37*
D15*
X125857000Y-51435000D03*
X125857000Y-44069000D03*
G36*
G01*
X126757000Y-47560000D02*
X124957000Y-47560000D01*
G75*
G02*
X124906000Y-47509000I0J51000D01*
G01*
X124906000Y-45709000D01*
G75*
G02*
X124957000Y-45658000I51000J0D01*
G01*
X126757000Y-45658000D01*
G75*
G02*
X126808000Y-45709000I0J-51000D01*
G01*
X126808000Y-47509000D01*
G75*
G02*
X126757000Y-47560000I-51000J0D01*
G01*
G37*
X93345000Y-51435000D03*
G36*
G01*
X92445000Y-47944000D02*
X94245000Y-47944000D01*
G75*
G02*
X94296000Y-47995000I0J-51000D01*
G01*
X94296000Y-49795000D01*
G75*
G02*
X94245000Y-49846000I-51000J0D01*
G01*
X92445000Y-49846000D01*
G75*
G02*
X92394000Y-49795000I0J51000D01*
G01*
X92394000Y-47995000D01*
G75*
G02*
X92445000Y-47944000I51000J0D01*
G01*
G37*
G36*
G01*
X94245000Y-47560000D02*
X92445000Y-47560000D01*
G75*
G02*
X92394000Y-47509000I0J51000D01*
G01*
X92394000Y-45709000D01*
G75*
G02*
X92445000Y-45658000I51000J0D01*
G01*
X94245000Y-45658000D01*
G75*
G02*
X94296000Y-45709000I0J-51000D01*
G01*
X94296000Y-47509000D01*
G75*
G02*
X94245000Y-47560000I-51000J0D01*
G01*
G37*
X93345000Y-44069000D03*
D16*
X147975000Y-66294000D03*
X150475000Y-66294000D03*
X133624000Y-66357500D03*
X136124000Y-66357500D03*
X115463000Y-66357500D03*
X117963000Y-66357500D03*
X101112000Y-66421000D03*
X103612000Y-66421000D03*
X82951000Y-90678000D03*
X85451000Y-90678000D03*
X82951000Y-66421000D03*
X85451000Y-66421000D03*
X68600000Y-66294000D03*
X71100000Y-66294000D03*
X103612000Y-90678000D03*
X101112000Y-90678000D03*
X150475000Y-90678000D03*
X147975000Y-90678000D03*
X136124000Y-90678000D03*
X133624000Y-90678000D03*
X115463000Y-90678000D03*
X117963000Y-90678000D03*
X84582000Y-118872000D03*
X84582000Y-121372000D03*
X71100000Y-90805000D03*
X68600000Y-90805000D03*
G36*
G01*
X128981000Y-56646700D02*
X128981000Y-54122700D01*
G75*
G02*
X129032000Y-54071700I51000J0D01*
G01*
X130556000Y-54071700D01*
G75*
G02*
X130607000Y-54122700I0J-51000D01*
G01*
X130607000Y-56646700D01*
G75*
G02*
X130556000Y-56697700I-51000J0D01*
G01*
X129032000Y-56697700D01*
G75*
G02*
X128981000Y-56646700I0J51000D01*
G01*
G37*
D17*
X132334000Y-55384700D03*
X134874000Y-55384700D03*
X137414000Y-55384700D03*
X139954000Y-55384700D03*
X139954000Y-40144700D03*
X137414000Y-40144700D03*
X134874000Y-40144700D03*
X132334000Y-40144700D03*
X129794000Y-40144700D03*
G36*
G01*
X110820000Y-56646700D02*
X110820000Y-54122700D01*
G75*
G02*
X110871000Y-54071700I51000J0D01*
G01*
X112395000Y-54071700D01*
G75*
G02*
X112446000Y-54122700I0J-51000D01*
G01*
X112446000Y-56646700D01*
G75*
G02*
X112395000Y-56697700I-51000J0D01*
G01*
X110871000Y-56697700D01*
G75*
G02*
X110820000Y-56646700I0J51000D01*
G01*
G37*
X114173000Y-55384700D03*
X116713000Y-55384700D03*
X119253000Y-55384700D03*
X121793000Y-55384700D03*
X121793000Y-40144700D03*
X119253000Y-40144700D03*
X116713000Y-40144700D03*
X114173000Y-40144700D03*
X111633000Y-40144700D03*
G36*
G01*
X96469000Y-56646700D02*
X96469000Y-54122700D01*
G75*
G02*
X96520000Y-54071700I51000J0D01*
G01*
X98044000Y-54071700D01*
G75*
G02*
X98095000Y-54122700I0J-51000D01*
G01*
X98095000Y-56646700D01*
G75*
G02*
X98044000Y-56697700I-51000J0D01*
G01*
X96520000Y-56697700D01*
G75*
G02*
X96469000Y-56646700I0J51000D01*
G01*
G37*
X99822000Y-55384700D03*
X102362000Y-55384700D03*
X104902000Y-55384700D03*
X107442000Y-55384700D03*
X107442000Y-40144700D03*
X104902000Y-40144700D03*
X102362000Y-40144700D03*
X99822000Y-40144700D03*
X97282000Y-40144700D03*
G36*
G01*
X78308000Y-56646700D02*
X78308000Y-54122700D01*
G75*
G02*
X78359000Y-54071700I51000J0D01*
G01*
X79883000Y-54071700D01*
G75*
G02*
X79934000Y-54122700I0J-51000D01*
G01*
X79934000Y-56646700D01*
G75*
G02*
X79883000Y-56697700I-51000J0D01*
G01*
X78359000Y-56697700D01*
G75*
G02*
X78308000Y-56646700I0J51000D01*
G01*
G37*
X81661000Y-55384700D03*
X84201000Y-55384700D03*
X86741000Y-55384700D03*
X89281000Y-55384700D03*
X89281000Y-40144700D03*
X86741000Y-40144700D03*
X84201000Y-40144700D03*
X81661000Y-40144700D03*
X79121000Y-40144700D03*
G36*
G01*
X63957000Y-56646700D02*
X63957000Y-54122700D01*
G75*
G02*
X64008000Y-54071700I51000J0D01*
G01*
X65532000Y-54071700D01*
G75*
G02*
X65583000Y-54122700I0J-51000D01*
G01*
X65583000Y-56646700D01*
G75*
G02*
X65532000Y-56697700I-51000J0D01*
G01*
X64008000Y-56697700D01*
G75*
G02*
X63957000Y-56646700I0J51000D01*
G01*
G37*
X67310000Y-55384700D03*
X69850000Y-55384700D03*
X72390000Y-55384700D03*
X74930000Y-55384700D03*
X74930000Y-40144700D03*
X72390000Y-40144700D03*
X69850000Y-40144700D03*
X67310000Y-40144700D03*
X64770000Y-40144700D03*
G36*
G01*
X143332000Y-56646700D02*
X143332000Y-54122700D01*
G75*
G02*
X143383000Y-54071700I51000J0D01*
G01*
X144907000Y-54071700D01*
G75*
G02*
X144958000Y-54122700I0J-51000D01*
G01*
X144958000Y-56646700D01*
G75*
G02*
X144907000Y-56697700I-51000J0D01*
G01*
X143383000Y-56697700D01*
G75*
G02*
X143332000Y-56646700I0J51000D01*
G01*
G37*
X146685000Y-55384700D03*
X149225000Y-55384700D03*
X151765000Y-55384700D03*
X154305000Y-55384700D03*
X154305000Y-40144700D03*
X151765000Y-40144700D03*
X149225000Y-40144700D03*
X146685000Y-40144700D03*
X144145000Y-40144700D03*
M02*
