M48
; DRILL file {KiCad (5.1.8)-1} date 01/31/21 20:23:01
; FORMAT={-:-/ absolute / inch / decimal}
; #@! TF.CreationDate,2021-01-31T20:23:01-05:00
; #@! TF.GenerationSoftware,Kicad,Pcbnew,(5.1.8)-1
; #@! TF.FileFunction,Plated,1,2,PTH
FMAT,2
INCH
T1C0.0130
T2C0.0276
T3C0.0315
T4C0.0354
T5C0.0394
T6C0.1260
%
G90
G05
T1
X2.39Y-2.1
X2.39Y-2.56
X2.39Y-2.89
X2.39Y-3.51
X2.39Y-3.8
X2.39Y-4.0
X2.54Y-4.965
X2.6028Y-4.8228
X2.665Y-4.245
X2.805Y-4.65
X3.025Y-4.495
X3.0295Y-3.8
X3.04Y-2.51
X3.04Y-2.6
X3.07Y-4.2
X3.25Y-3.905
X3.25Y-3.995
X3.26Y-2.845
X3.26Y-2.945
X3.26Y-4.205
X3.26Y-4.285
X3.4015Y-4.1565
X3.405Y-4.82
X3.535Y-4.78
X3.715Y-4.385
X3.75Y-4.385
X3.785Y-4.385
X3.82Y-4.3853
X3.945Y-3.75
X3.945Y-3.9
X3.945Y-4.345
X3.96Y-2.845
X3.96Y-2.935
X3.995Y-4.735
X4.0875Y-3.7
X4.11Y-4.735
X4.13Y-3.19
X4.24Y-3.19
X4.265Y-3.7
X4.265Y-3.895
X4.325Y-4.0
X4.355Y-4.095
X4.525Y-2.84
X4.525Y-2.94
X4.685Y-4.345
X4.813Y-4.385
X4.8385Y-4.4395
X4.8395Y-4.2015
X4.87Y-4.1
X4.87Y-4.465
X4.9Y-4.3
X4.9001Y-4.414
X4.975Y-4.15
X5.005Y-3.8
X5.015Y-4.395
X5.03Y-2.845
X5.03Y-2.935
X5.05Y-3.995
X5.08Y-4.1
X5.225Y-4.3
X5.225Y-4.51
X5.225Y-3.75
X5.255Y-3.85
X5.255Y-4.0
X5.285Y-3.8
X5.285Y-3.95
X5.36Y-3.8
X5.36Y-4.15
X5.395Y-3.7
X5.395Y-3.9
X5.515Y-3.9
X5.515Y-4.235
X5.54Y-4.65
X5.565Y-4.1
X5.595Y-4.2
X5.625Y-4.3
X5.655Y-4.0
X5.655Y-4.1
X5.815Y-2.845
X5.815Y-2.935
X5.815Y-4.3
X5.815Y-4.51
X5.96Y-4.25
X6.0895Y-4.4395
X6.09Y-4.05
X6.12Y-4.465
X6.145Y-4.0
X6.15Y-4.395
X6.275Y-3.51
X6.275Y-4.62
X6.275Y-2.74
X6.275Y-2.89
X6.32Y-1.55
X6.32Y-2.085
T2
X4.955Y-1.445
X4.955Y-1.645
X5.975Y-2.31
X5.975Y-2.51
X5.41Y-2.31
X5.41Y-2.51
X2.55Y-2.31
X2.55Y-2.51
X3.115Y-2.31
X3.115Y-2.51
X4.495Y-1.68
X4.495Y-1.88
X5.675Y-2.31
X5.675Y-2.51
X4.395Y-2.31
X4.395Y-2.51
X4.13Y-1.68
X4.13Y-1.88
X3.215Y-2.31
X3.215Y-2.51
X3.675Y-1.45
X3.675Y-1.65
X3.995Y-4.865
X3.995Y-5.065
X5.11Y-2.31
X5.11Y-2.51
X5.775Y-2.31
X5.775Y-2.51
X5.21Y-2.31
X5.21Y-2.51
X2.65Y-1.68
X2.65Y-1.88
X3.115Y-1.68
X3.115Y-1.88
X3.675Y-2.115
X3.675Y-2.315
X5.675Y-1.68
X5.675Y-1.88
X5.975Y-1.68
X5.975Y-1.88
X4.495Y-2.31
X4.495Y-2.51
X6.075Y-1.68
X6.075Y-1.88
X3.83Y-2.31
X3.83Y-2.51
X2.55Y-1.68
X2.55Y-1.88
X4.23Y-1.68
X4.23Y-1.88
X2.85Y-2.31
X2.85Y-2.51
X5.775Y-1.68
X5.775Y-1.88
X4.11Y-4.865
X4.11Y-5.065
X4.395Y-1.68
X4.395Y-1.88
X4.695Y-2.31
X4.695Y-2.51
X5.11Y-1.68
X5.11Y-1.88
X3.93Y-1.68
X3.93Y-1.88
X3.515Y-1.68
X3.515Y-1.88
X2.85Y-1.68
X2.85Y-1.88
X3.415Y-2.31
X3.415Y-2.51
X2.95Y-1.68
X2.95Y-1.88
X5.51Y-1.68
X5.51Y-1.88
X4.795Y-1.68
X4.795Y-1.88
X4.695Y-1.68
X4.695Y-1.88
X3.215Y-1.68
X3.215Y-1.88
X2.65Y-2.31
X2.65Y-2.51
X4.13Y-2.31
X4.13Y-2.51
X4.955Y-2.115
X4.955Y-2.315
X5.21Y-1.68
X5.21Y-1.88
X5.41Y-1.68
X5.41Y-1.88
X3.83Y-1.68
X3.83Y-1.88
X3.415Y-1.68
X3.415Y-1.88
X3.93Y-2.31
X3.93Y-2.51
T3
X5.2608Y-2.6125
X5.3592Y-2.6125
X3.33Y-4.68
X3.33Y-4.7784
X2.7008Y-3.575
X2.7992Y-3.575
X3.2658Y-2.615
X3.3642Y-2.615
X5.7254Y-3.7
X5.7254Y-3.8
X5.7254Y-3.9
X5.7254Y-4.0
X5.7254Y-4.1
X5.7254Y-4.2
X5.7254Y-4.3
X6.0254Y-3.7
X6.0254Y-3.8
X6.0254Y-3.9
X6.0254Y-4.0
X6.0254Y-4.1
X6.0254Y-4.2
X6.0254Y-4.3
X4.395Y-1.5805
X4.395Y-2.1805
X4.495Y-1.5805
X4.495Y-2.1805
X4.595Y-1.5805
X4.595Y-2.1805
X4.695Y-1.5805
X4.695Y-2.1805
X4.795Y-1.5805
X4.795Y-2.1805
X2.6004Y-3.7
X2.6004Y-3.8
X2.6004Y-3.9
X2.6004Y-4.0
X2.6004Y-4.1
X2.6004Y-4.2
X2.6004Y-4.3
X2.9004Y-3.7
X2.9004Y-3.8
X2.9004Y-3.9
X2.9004Y-4.0
X2.9004Y-4.1
X2.9004Y-4.2
X2.9004Y-4.3
X5.2608Y-3.57
X5.3592Y-3.57
X4.5458Y-3.57
X4.6442Y-3.57
X3.1654Y-3.7
X3.1654Y-3.8
X3.1654Y-3.9
X3.1654Y-4.0
X3.1654Y-4.1
X3.1654Y-4.2
X3.1654Y-4.3
X3.1654Y-4.4
X3.4654Y-3.7
X3.4654Y-3.8
X3.4654Y-3.9
X3.4654Y-4.0
X3.4654Y-4.1
X3.4654Y-4.2
X3.4654Y-4.3
X3.4654Y-4.4
X3.83Y-1.5805
X3.83Y-2.1805
X3.93Y-1.5805
X3.93Y-2.1805
X4.03Y-1.5805
X4.03Y-2.1805
X4.13Y-1.5805
X4.13Y-2.1805
X4.23Y-1.5805
X4.23Y-2.1805
X3.8804Y-2.74
X3.8804Y-2.84
X3.8804Y-2.94
X3.8804Y-3.04
X3.8804Y-3.14
X3.8804Y-3.24
X3.8804Y-3.34
X3.8804Y-3.44
X4.1804Y-2.74
X4.1804Y-2.84
X4.1804Y-2.94
X4.1804Y-3.04
X4.1804Y-3.14
X4.1804Y-3.24
X4.1804Y-3.34
X4.1804Y-3.44
X5.8258Y-2.61
X5.9242Y-2.61
X5.8258Y-3.57
X5.9242Y-3.57
X5.1604Y-3.7
X5.1604Y-3.8
X5.1604Y-3.9
X5.1604Y-4.0
X5.1604Y-4.1
X5.1604Y-4.2
X5.1604Y-4.3
X5.4604Y-3.7
X5.4604Y-3.8
X5.4604Y-3.9
X5.4604Y-4.0
X5.4604Y-4.1
X5.4604Y-4.2
X5.4604Y-4.3
X2.6004Y-2.74
X2.6004Y-2.84
X2.6004Y-2.94
X2.6004Y-3.04
X2.6004Y-3.14
X2.6004Y-3.24
X2.6004Y-3.34
X2.6004Y-3.44
X2.9004Y-2.74
X2.9004Y-2.84
X2.9004Y-2.94
X2.9004Y-3.04
X2.9004Y-3.14
X2.9004Y-3.24
X2.9004Y-3.34
X2.9004Y-3.44
X3.9808Y-2.615
X4.0792Y-2.615
X4.5458Y-2.6125
X4.6442Y-2.6125
X2.7008Y-2.61
X2.7992Y-2.61
X2.55Y-1.5805
X2.55Y-2.1805
X2.65Y-1.5805
X2.65Y-2.1805
X2.75Y-1.5805
X2.75Y-2.1805
X2.85Y-1.5805
X2.85Y-2.1805
X2.95Y-1.5805
X2.95Y-2.1805
X3.8804Y-3.7
X3.8804Y-3.8
X3.8804Y-3.9
X3.8804Y-4.0
X3.8804Y-4.1
X3.8804Y-4.2
X3.8804Y-4.3
X4.1804Y-3.7
X4.1804Y-3.8
X4.1804Y-3.9
X4.1804Y-4.0
X4.1804Y-4.1
X4.1804Y-4.2
X4.1804Y-4.3
X2.6028Y-4.59
X2.6028Y-4.89
X2.7028Y-4.59
X2.7028Y-4.89
X2.8028Y-4.59
X2.8028Y-4.89
X2.9028Y-4.59
X2.9028Y-4.89
X3.0028Y-4.59
X3.0028Y-4.89
X3.1028Y-4.59
X3.1028Y-4.89
X3.2028Y-4.59
X3.2028Y-4.89
X5.1604Y-2.74
X5.1604Y-2.84
X5.1604Y-2.94
X5.1604Y-3.04
X5.1604Y-3.14
X5.1604Y-3.24
X5.1604Y-3.34
X5.1604Y-3.44
X5.4604Y-2.74
X5.4604Y-2.84
X5.4604Y-2.94
X5.4604Y-3.04
X5.4604Y-3.14
X5.4604Y-3.24
X5.4604Y-3.34
X5.4604Y-3.44
X3.115Y-1.5805
X3.115Y-2.1805
X3.215Y-1.5805
X3.215Y-2.1805
X3.315Y-1.5805
X3.315Y-2.1805
X3.415Y-1.5805
X3.415Y-2.1805
X3.515Y-1.5805
X3.515Y-2.1805
X3.1654Y-2.74
X3.1654Y-2.84
X3.1654Y-2.94
X3.1654Y-3.04
X3.1654Y-3.14
X3.1654Y-3.24
X3.1654Y-3.34
X3.1654Y-3.44
X3.4654Y-2.74
X3.4654Y-2.84
X3.4654Y-2.94
X3.4654Y-3.04
X3.4654Y-3.14
X3.4654Y-3.24
X3.4654Y-3.34
X3.4654Y-3.44
X4.4454Y-3.7
X4.4454Y-3.8
X4.4454Y-3.9
X4.4454Y-4.0
X4.4454Y-4.1
X4.4454Y-4.2
X4.4454Y-4.3
X4.7454Y-3.7
X4.7454Y-3.8
X4.7454Y-3.9
X4.7454Y-4.0
X4.7454Y-4.1
X4.7454Y-4.2
X4.7454Y-4.3
X3.2658Y-3.57
X3.3642Y-3.57
X5.11Y-1.5805
X5.11Y-2.1805
X5.21Y-1.5805
X5.21Y-2.1805
X5.31Y-1.5805
X5.31Y-2.1805
X5.41Y-1.5805
X5.41Y-2.1805
X5.51Y-1.5805
X5.51Y-2.1805
X5.675Y-1.5805
X5.675Y-2.1805
X5.775Y-1.5805
X5.775Y-2.1805
X5.875Y-1.5805
X5.875Y-2.1805
X5.975Y-1.5805
X5.975Y-2.1805
X6.075Y-1.5805
X6.075Y-2.1805
X3.9808Y-3.57
X4.0792Y-3.57
X5.7254Y-2.74
X5.7254Y-2.84
X5.7254Y-2.94
X5.7254Y-3.04
X5.7254Y-3.14
X5.7254Y-3.24
X5.7254Y-3.34
X5.7254Y-3.44
X6.0254Y-2.74
X6.0254Y-2.84
X6.0254Y-2.94
X6.0254Y-3.04
X6.0254Y-3.14
X6.0254Y-3.24
X6.0254Y-3.34
X6.0254Y-3.44
X4.4454Y-2.74
X4.4454Y-2.84
X4.4454Y-2.94
X4.4454Y-3.04
X4.4454Y-3.14
X4.4454Y-3.24
X4.4454Y-3.34
X4.4454Y-3.44
X4.7454Y-2.74
X4.7454Y-2.84
X4.7454Y-2.94
X4.7454Y-3.04
X4.7454Y-3.14
X4.7454Y-3.24
X4.7454Y-3.34
X4.7454Y-3.44
T4
X4.955Y-1.925
X4.955Y-2.025
X3.675Y-1.735
X3.675Y-1.835
X3.675Y-1.925
X3.675Y-2.025
X4.955Y-1.735
X4.955Y-1.835
T5
X5.97Y-4.65
X5.97Y-4.75
X5.97Y-4.85
X5.97Y-4.95
T6
X6.245Y-1.375
X2.38Y-1.375
X6.245Y-5.005
X2.38Y-5.005
T0
M30
