G04 #@! TF.GenerationSoftware,KiCad,Pcbnew,(5.1.8)-1*
G04 #@! TF.CreationDate,2021-01-31T20:23:03-05:00*
G04 #@! TF.ProjectId,TTL_Logic_Clock_revA,54544c5f-4c6f-4676-9963-5f436c6f636b,rev?*
G04 #@! TF.SameCoordinates,Original*
G04 #@! TF.FileFunction,Copper,L1,Top*
G04 #@! TF.FilePolarity,Positive*
%FSLAX46Y46*%
G04 Gerber Fmt 4.6, Leading zero omitted, Abs format (unit mm)*
G04 Created by KiCad (PCBNEW (5.1.8)-1) date 2021-01-31 20:23:03*
%MOMM*%
%LPD*%
G01*
G04 APERTURE LIST*
G04 #@! TA.AperFunction,ComponentPad*
%ADD10O,1.400000X1.400000*%
G04 #@! TD*
G04 #@! TA.AperFunction,ComponentPad*
%ADD11C,1.400000*%
G04 #@! TD*
G04 #@! TA.AperFunction,ComponentPad*
%ADD12O,1.600000X1.600000*%
G04 #@! TD*
G04 #@! TA.AperFunction,ComponentPad*
%ADD13R,1.600000X1.600000*%
G04 #@! TD*
G04 #@! TA.AperFunction,ComponentPad*
%ADD14O,1.700000X1.700000*%
G04 #@! TD*
G04 #@! TA.AperFunction,ComponentPad*
%ADD15R,1.700000X1.700000*%
G04 #@! TD*
G04 #@! TA.AperFunction,ComponentPad*
%ADD16C,6.400000*%
G04 #@! TD*
G04 #@! TA.AperFunction,ComponentPad*
%ADD17R,1.800000X1.800000*%
G04 #@! TD*
G04 #@! TA.AperFunction,ComponentPad*
%ADD18C,1.800000*%
G04 #@! TD*
G04 #@! TA.AperFunction,ComponentPad*
%ADD19C,1.600000*%
G04 #@! TD*
G04 #@! TA.AperFunction,ComponentPad*
%ADD20R,1.524000X2.524000*%
G04 #@! TD*
G04 #@! TA.AperFunction,ComponentPad*
%ADD21O,1.524000X2.524000*%
G04 #@! TD*
G04 #@! TA.AperFunction,ViaPad*
%ADD22C,0.685800*%
G04 #@! TD*
G04 #@! TA.AperFunction,Conductor*
%ADD23C,0.203200*%
G04 #@! TD*
G04 #@! TA.AperFunction,Conductor*
%ADD24C,0.355600*%
G04 #@! TD*
G04 APERTURE END LIST*
D10*
X104394000Y-128651000D03*
D11*
X104394000Y-123571000D03*
D10*
X101473000Y-128651000D03*
D11*
X101473000Y-123571000D03*
D12*
X153045000Y-93980000D03*
X145425000Y-109220000D03*
X153045000Y-96520000D03*
X145425000Y-106680000D03*
X153045000Y-99060000D03*
X145425000Y-104140000D03*
X153045000Y-101600000D03*
X145425000Y-101600000D03*
X153045000Y-104140000D03*
X145425000Y-99060000D03*
X153045000Y-106680000D03*
X145425000Y-96520000D03*
X153045000Y-109220000D03*
D13*
X145425000Y-93980000D03*
D12*
X138694000Y-93980000D03*
X131074000Y-109220000D03*
X138694000Y-96520000D03*
X131074000Y-106680000D03*
X138694000Y-99060000D03*
X131074000Y-104140000D03*
X138694000Y-101600000D03*
X131074000Y-101600000D03*
X138694000Y-104140000D03*
X131074000Y-99060000D03*
X138694000Y-106680000D03*
X131074000Y-96520000D03*
X138694000Y-109220000D03*
D13*
X131074000Y-93980000D03*
X112913000Y-93980000D03*
D12*
X120533000Y-109220000D03*
X112913000Y-96520000D03*
X120533000Y-106680000D03*
X112913000Y-99060000D03*
X120533000Y-104140000D03*
X112913000Y-101600000D03*
X120533000Y-101600000D03*
X112913000Y-104140000D03*
X120533000Y-99060000D03*
X112913000Y-106680000D03*
X120533000Y-96520000D03*
X112913000Y-109220000D03*
X120533000Y-93980000D03*
X153045000Y-69596000D03*
X145425000Y-87376000D03*
X153045000Y-72136000D03*
X145425000Y-84836000D03*
X153045000Y-74676000D03*
X145425000Y-82296000D03*
X153045000Y-77216000D03*
X145425000Y-79756000D03*
X153045000Y-79756000D03*
X145425000Y-77216000D03*
X153045000Y-82296000D03*
X145425000Y-74676000D03*
X153045000Y-84836000D03*
X145425000Y-72136000D03*
X153045000Y-87376000D03*
D13*
X145425000Y-69596000D03*
D12*
X138694000Y-69596000D03*
X131074000Y-87376000D03*
X138694000Y-72136000D03*
X131074000Y-84836000D03*
X138694000Y-74676000D03*
X131074000Y-82296000D03*
X138694000Y-77216000D03*
X131074000Y-79756000D03*
X138694000Y-79756000D03*
X131074000Y-77216000D03*
X138694000Y-82296000D03*
X131074000Y-74676000D03*
X138694000Y-84836000D03*
X131074000Y-72136000D03*
X138694000Y-87376000D03*
D13*
X131074000Y-69596000D03*
D12*
X120533000Y-69596000D03*
X112913000Y-87376000D03*
X120533000Y-72136000D03*
X112913000Y-84836000D03*
X120533000Y-74676000D03*
X112913000Y-82296000D03*
X120533000Y-77216000D03*
X112913000Y-79756000D03*
X120533000Y-79756000D03*
X112913000Y-77216000D03*
X120533000Y-82296000D03*
X112913000Y-74676000D03*
X120533000Y-84836000D03*
X112913000Y-72136000D03*
X120533000Y-87376000D03*
D13*
X112913000Y-69596000D03*
X98562000Y-69596000D03*
D12*
X106182000Y-87376000D03*
X98562000Y-72136000D03*
X106182000Y-84836000D03*
X98562000Y-74676000D03*
X106182000Y-82296000D03*
X98562000Y-77216000D03*
X106182000Y-79756000D03*
X98562000Y-79756000D03*
X106182000Y-77216000D03*
X98562000Y-82296000D03*
X106182000Y-74676000D03*
X98562000Y-84836000D03*
X106182000Y-72136000D03*
X98562000Y-87376000D03*
X106182000Y-69596000D03*
D13*
X80401000Y-93980000D03*
D12*
X88021000Y-111760000D03*
X80401000Y-96520000D03*
X88021000Y-109220000D03*
X80401000Y-99060000D03*
X88021000Y-106680000D03*
X80401000Y-101600000D03*
X88021000Y-104140000D03*
X80401000Y-104140000D03*
X88021000Y-101600000D03*
X80401000Y-106680000D03*
X88021000Y-99060000D03*
X80401000Y-109220000D03*
X88021000Y-96520000D03*
X80401000Y-111760000D03*
X88021000Y-93980000D03*
X88021000Y-69596000D03*
X80401000Y-87376000D03*
X88021000Y-72136000D03*
X80401000Y-84836000D03*
X88021000Y-74676000D03*
X80401000Y-82296000D03*
X88021000Y-77216000D03*
X80401000Y-79756000D03*
X88021000Y-79756000D03*
X80401000Y-77216000D03*
X88021000Y-82296000D03*
X80401000Y-74676000D03*
X88021000Y-84836000D03*
X80401000Y-72136000D03*
X88021000Y-87376000D03*
D13*
X80401000Y-69596000D03*
D12*
X73670000Y-69596000D03*
X66050000Y-87376000D03*
X73670000Y-72136000D03*
X66050000Y-84836000D03*
X73670000Y-74676000D03*
X66050000Y-82296000D03*
X73670000Y-77216000D03*
X66050000Y-79756000D03*
X73670000Y-79756000D03*
X66050000Y-77216000D03*
X73670000Y-82296000D03*
X66050000Y-74676000D03*
X73670000Y-84836000D03*
X66050000Y-72136000D03*
X73670000Y-87376000D03*
D13*
X66050000Y-69596000D03*
D12*
X106182000Y-93980000D03*
X98562000Y-109220000D03*
X106182000Y-96520000D03*
X98562000Y-106680000D03*
X106182000Y-99060000D03*
X98562000Y-104140000D03*
X106182000Y-101600000D03*
X98562000Y-101600000D03*
X106182000Y-104140000D03*
X98562000Y-99060000D03*
X106182000Y-106680000D03*
X98562000Y-96520000D03*
X106182000Y-109220000D03*
D13*
X98562000Y-93980000D03*
X81350000Y-116586000D03*
D12*
X66110000Y-124206000D03*
X78810000Y-116586000D03*
X68650000Y-124206000D03*
X76270000Y-116586000D03*
X71190000Y-124206000D03*
X73730000Y-116586000D03*
X73730000Y-124206000D03*
X71190000Y-116586000D03*
X76270000Y-124206000D03*
X68650000Y-116586000D03*
X78810000Y-124206000D03*
X66110000Y-116586000D03*
X81350000Y-124206000D03*
D13*
X66050000Y-93980000D03*
D12*
X73670000Y-109220000D03*
X66050000Y-96520000D03*
X73670000Y-106680000D03*
X66050000Y-99060000D03*
X73670000Y-104140000D03*
X66050000Y-101600000D03*
X73670000Y-101600000D03*
X66050000Y-104140000D03*
X73670000Y-99060000D03*
X66050000Y-106680000D03*
X73670000Y-96520000D03*
X66050000Y-109220000D03*
X73670000Y-93980000D03*
D10*
X125857000Y-53721000D03*
D11*
X125857000Y-58801000D03*
D10*
X125857000Y-41783000D03*
D11*
X125857000Y-36703000D03*
D10*
X93345000Y-53721000D03*
D11*
X93345000Y-58801000D03*
D10*
X93345000Y-41910000D03*
D11*
X93345000Y-36830000D03*
D10*
X144145000Y-47752000D03*
D11*
X144145000Y-42672000D03*
D10*
X146685000Y-47752000D03*
D11*
X146685000Y-42672000D03*
D10*
X144145000Y-63754000D03*
D11*
X144145000Y-58674000D03*
D10*
X146685000Y-63754000D03*
D11*
X146685000Y-58674000D03*
D10*
X151765000Y-63754000D03*
D11*
X151765000Y-58674000D03*
D10*
X154305000Y-47752000D03*
D11*
X154305000Y-42672000D03*
D10*
X151765000Y-47752000D03*
D11*
X151765000Y-42672000D03*
D10*
X129794000Y-47752000D03*
D11*
X129794000Y-42672000D03*
D10*
X132334000Y-47752000D03*
D11*
X132334000Y-42672000D03*
D10*
X129794000Y-63754000D03*
D11*
X129794000Y-58674000D03*
D10*
X132334000Y-63754000D03*
D11*
X132334000Y-58674000D03*
D10*
X137414000Y-63754000D03*
D11*
X137414000Y-58674000D03*
D10*
X139954000Y-47752000D03*
D11*
X139954000Y-42672000D03*
D10*
X137414000Y-47752000D03*
D11*
X137414000Y-42672000D03*
D10*
X111633000Y-47752000D03*
D11*
X111633000Y-42672000D03*
D10*
X114173000Y-47752000D03*
D11*
X114173000Y-42672000D03*
X111633000Y-58674000D03*
D10*
X111633000Y-63754000D03*
D11*
X114173000Y-58674000D03*
D10*
X114173000Y-63754000D03*
D11*
X119253000Y-58674000D03*
D10*
X119253000Y-63754000D03*
X121793000Y-47752000D03*
D11*
X121793000Y-42672000D03*
D10*
X119253000Y-47752000D03*
D11*
X119253000Y-42672000D03*
D10*
X97282000Y-47752000D03*
D11*
X97282000Y-42672000D03*
D10*
X99822000Y-47752000D03*
D11*
X99822000Y-42672000D03*
D10*
X97282000Y-63754000D03*
D11*
X97282000Y-58674000D03*
D10*
X99822000Y-63754000D03*
D11*
X99822000Y-58674000D03*
D10*
X104902000Y-63754000D03*
D11*
X104902000Y-58674000D03*
D10*
X107442000Y-47752000D03*
D11*
X107442000Y-42672000D03*
D10*
X104902000Y-47752000D03*
D11*
X104902000Y-42672000D03*
D10*
X79121000Y-47752000D03*
D11*
X79121000Y-42672000D03*
D10*
X81661000Y-47752000D03*
D11*
X81661000Y-42672000D03*
D10*
X79121000Y-63754000D03*
D11*
X79121000Y-58674000D03*
D10*
X81661000Y-63754000D03*
D11*
X81661000Y-58674000D03*
D10*
X86741000Y-63754000D03*
D11*
X86741000Y-58674000D03*
D10*
X89281000Y-47752000D03*
D11*
X89281000Y-42672000D03*
D10*
X86741000Y-47752000D03*
D11*
X86741000Y-42672000D03*
D10*
X64770000Y-47752000D03*
D11*
X64770000Y-42672000D03*
D10*
X67310000Y-47752000D03*
D11*
X67310000Y-42672000D03*
X64770000Y-58674000D03*
D10*
X64770000Y-63754000D03*
D11*
X67310000Y-58674000D03*
D10*
X67310000Y-63754000D03*
D11*
X72390000Y-58674000D03*
D10*
X72390000Y-63754000D03*
X74930000Y-47752000D03*
D11*
X74930000Y-42672000D03*
D10*
X72390000Y-47752000D03*
D11*
X72390000Y-42672000D03*
D14*
X151638000Y-125730000D03*
X151638000Y-123190000D03*
X151638000Y-120650000D03*
D15*
X151638000Y-118110000D03*
D16*
X158623000Y-127127000D03*
X60452000Y-127127000D03*
X158623000Y-34925000D03*
X60452000Y-34925000D03*
D17*
X125857000Y-48895000D03*
D18*
X125857000Y-51435000D03*
X125857000Y-44069000D03*
D17*
X125857000Y-46609000D03*
D18*
X93345000Y-51435000D03*
D17*
X93345000Y-48895000D03*
X93345000Y-46609000D03*
D18*
X93345000Y-44069000D03*
D19*
X147975000Y-66294000D03*
X150475000Y-66294000D03*
X133624000Y-66357500D03*
X136124000Y-66357500D03*
X115463000Y-66357500D03*
X117963000Y-66357500D03*
X101112000Y-66421000D03*
X103612000Y-66421000D03*
X82951000Y-90678000D03*
X85451000Y-90678000D03*
X82951000Y-66421000D03*
X85451000Y-66421000D03*
X68600000Y-66294000D03*
X71100000Y-66294000D03*
X103612000Y-90678000D03*
X101112000Y-90678000D03*
X150475000Y-90678000D03*
X147975000Y-90678000D03*
X136124000Y-90678000D03*
X133624000Y-90678000D03*
X115463000Y-90678000D03*
X117963000Y-90678000D03*
X84582000Y-118872000D03*
X84582000Y-121372000D03*
X71100000Y-90805000D03*
X68600000Y-90805000D03*
D20*
X129794000Y-55384700D03*
D21*
X132334000Y-55384700D03*
X134874000Y-55384700D03*
X137414000Y-55384700D03*
X139954000Y-55384700D03*
X139954000Y-40144700D03*
X137414000Y-40144700D03*
X134874000Y-40144700D03*
X132334000Y-40144700D03*
X129794000Y-40144700D03*
D20*
X111633000Y-55384700D03*
D21*
X114173000Y-55384700D03*
X116713000Y-55384700D03*
X119253000Y-55384700D03*
X121793000Y-55384700D03*
X121793000Y-40144700D03*
X119253000Y-40144700D03*
X116713000Y-40144700D03*
X114173000Y-40144700D03*
X111633000Y-40144700D03*
D20*
X97282000Y-55384700D03*
D21*
X99822000Y-55384700D03*
X102362000Y-55384700D03*
X104902000Y-55384700D03*
X107442000Y-55384700D03*
X107442000Y-40144700D03*
X104902000Y-40144700D03*
X102362000Y-40144700D03*
X99822000Y-40144700D03*
X97282000Y-40144700D03*
D20*
X79121000Y-55384700D03*
D21*
X81661000Y-55384700D03*
X84201000Y-55384700D03*
X86741000Y-55384700D03*
X89281000Y-55384700D03*
X89281000Y-40144700D03*
X86741000Y-40144700D03*
X84201000Y-40144700D03*
X81661000Y-40144700D03*
X79121000Y-40144700D03*
D20*
X64770000Y-55384700D03*
D21*
X67310000Y-55384700D03*
X69850000Y-55384700D03*
X72390000Y-55384700D03*
X74930000Y-55384700D03*
X74930000Y-40144700D03*
X72390000Y-40144700D03*
X69850000Y-40144700D03*
X67310000Y-40144700D03*
X64770000Y-40144700D03*
D20*
X144145000Y-55384700D03*
D21*
X146685000Y-55384700D03*
X149225000Y-55384700D03*
X151765000Y-55384700D03*
X154305000Y-55384700D03*
X154305000Y-40144700D03*
X151765000Y-40144700D03*
X149225000Y-40144700D03*
X146685000Y-40144700D03*
X144145000Y-40144700D03*
D22*
X160528000Y-39370000D03*
X160528000Y-52958996D03*
X60706000Y-53340002D03*
X60706000Y-65023998D03*
X159385000Y-69596000D03*
X159385000Y-73406000D03*
X60706000Y-73406000D03*
X60706000Y-89154000D03*
X60706000Y-101600000D03*
X89789000Y-121412000D03*
X159384996Y-89154000D03*
X159384996Y-117347998D03*
X60706000Y-96520000D03*
X82804000Y-74803000D03*
X82804000Y-72263000D03*
X77216000Y-63754000D03*
X77216000Y-66040000D03*
X100584000Y-72263000D03*
X100584000Y-74549000D03*
X114935000Y-72136000D03*
X114935000Y-74676000D03*
X104902000Y-81026000D03*
X107696000Y-81026000D03*
X132715000Y-109220000D03*
X132715000Y-114554000D03*
X147701000Y-109220000D03*
X147701000Y-114554000D03*
X108331000Y-93980000D03*
X108331000Y-98933000D03*
X127762000Y-72263000D03*
X127762008Y-74549000D03*
X82550000Y-99187000D03*
X82550000Y-101473000D03*
X82804000Y-106807000D03*
X82804000Y-108839000D03*
X147701000Y-72263000D03*
X147701000Y-74549000D03*
X136144000Y-96520000D03*
X136144000Y-105410000D03*
X126365000Y-105410000D03*
X140716000Y-118110000D03*
X64516000Y-126111006D03*
X66110000Y-122498002D03*
X86487000Y-122428000D03*
X67691000Y-107823000D03*
X71247000Y-118110000D03*
X76949290Y-96520000D03*
X76835000Y-114173000D03*
X156083000Y-101600000D03*
X156210000Y-111633000D03*
X127381000Y-111633000D03*
X127127000Y-96520000D03*
X151384000Y-107950000D03*
X118999000Y-110362992D03*
X100203008Y-110362992D03*
X110617000Y-104013000D03*
X97027979Y-111386666D03*
X122250183Y-111379000D03*
X109855000Y-101600000D03*
X154686000Y-102870000D03*
X94361000Y-111379000D03*
X123698000Y-113411000D03*
X123698000Y-104139988D03*
X155448000Y-113411000D03*
X95250000Y-111379000D03*
X122897899Y-112763290D03*
X122923292Y-106718101D03*
X154673290Y-112763290D03*
X96139000Y-111379000D03*
X124460000Y-109220000D03*
X124462541Y-112115580D03*
X100203000Y-99060000D03*
X100203000Y-95250000D03*
X142875000Y-109220000D03*
X142113000Y-106680000D03*
X141351000Y-104140000D03*
X143637000Y-104140000D03*
X128270000Y-101473000D03*
X133477000Y-97790000D03*
X133477000Y-101600000D03*
X143637000Y-101600000D03*
X129031966Y-104140000D03*
X132715012Y-95250000D03*
X86398199Y-105575199D03*
X77978000Y-106680000D03*
X137033000Y-93980000D03*
X137033000Y-99060000D03*
X140081000Y-99060000D03*
X140081000Y-107569000D03*
X134239000Y-100330000D03*
X134239000Y-96520000D03*
X101473000Y-120269000D03*
X104394000Y-120269000D03*
X103822500Y-93980000D03*
D23*
X64770000Y-55384700D02*
X64770000Y-56849900D01*
X64770000Y-56849900D02*
X64770000Y-58674000D01*
X67310000Y-55384700D02*
X67310000Y-56849900D01*
X67310000Y-56849900D02*
X67310000Y-58674000D01*
X72390000Y-56849900D02*
X72390000Y-58674000D01*
X72390000Y-55384700D02*
X72390000Y-56849900D01*
X74930000Y-40144700D02*
X74930000Y-42672000D01*
X72390000Y-40144700D02*
X72390000Y-42672000D01*
X67310000Y-40144700D02*
X67310000Y-42672000D01*
X64770000Y-40144700D02*
X64770000Y-42672000D01*
X79121000Y-55384700D02*
X79121000Y-56849900D01*
X79121000Y-56849900D02*
X79121000Y-58674000D01*
X81661000Y-56849900D02*
X81661000Y-58674000D01*
X81661000Y-55384700D02*
X81661000Y-56849900D01*
X86741000Y-55384700D02*
X86741000Y-56849900D01*
X86741000Y-56849900D02*
X86741000Y-58674000D01*
X89281000Y-40144700D02*
X89281000Y-42672000D01*
X86741000Y-40144700D02*
X86741000Y-42672000D01*
X81661000Y-40144700D02*
X81661000Y-42672000D01*
X79121000Y-40144700D02*
X79121000Y-42672000D01*
X97282000Y-55384700D02*
X97282000Y-56849900D01*
X97282000Y-56849900D02*
X97282000Y-58674000D01*
X99822000Y-55384700D02*
X99822000Y-56849900D01*
X99822000Y-56849900D02*
X99822000Y-58674000D01*
X104902000Y-56849900D02*
X104902000Y-58674000D01*
X104902000Y-55384700D02*
X104902000Y-56849900D01*
X107442000Y-40144700D02*
X107442000Y-42672000D01*
X104902000Y-40144700D02*
X104902000Y-42672000D01*
X99822000Y-40144700D02*
X99822000Y-42672000D01*
X97282000Y-40144700D02*
X97282000Y-42672000D01*
X111633000Y-55384700D02*
X111633000Y-56849900D01*
X111633000Y-56849900D02*
X111633000Y-58674000D01*
X114173000Y-56849900D02*
X114173000Y-58674000D01*
X114173000Y-55384700D02*
X114173000Y-56849900D01*
X119253000Y-55384700D02*
X119253000Y-56849900D01*
X119253000Y-56849900D02*
X119253000Y-58674000D01*
X121793000Y-40144700D02*
X121793000Y-42672000D01*
X119253000Y-40144700D02*
X119253000Y-42672000D01*
X114173000Y-40144700D02*
X114173000Y-42672000D01*
X111633000Y-40144700D02*
X111633000Y-42672000D01*
X129794000Y-55384700D02*
X129794000Y-56849900D01*
X129794000Y-56849900D02*
X129794000Y-58674000D01*
X132334000Y-56849900D02*
X132334000Y-58674000D01*
X132334000Y-55384700D02*
X132334000Y-56849900D01*
X137414000Y-56849900D02*
X137414000Y-58674000D01*
X137414000Y-55384700D02*
X137414000Y-56849900D01*
X139954000Y-40144700D02*
X139954000Y-42672000D01*
X137414000Y-40144700D02*
X137414000Y-42672000D01*
X132334000Y-40144700D02*
X132334000Y-42672000D01*
X129794000Y-40144700D02*
X129794000Y-42672000D01*
X144145000Y-56849900D02*
X144145000Y-58674000D01*
X144145000Y-55384700D02*
X144145000Y-56849900D01*
X146685000Y-56849900D02*
X146685000Y-58674000D01*
X146685000Y-55384700D02*
X146685000Y-56849900D01*
X151765000Y-56849900D02*
X151765000Y-58674000D01*
X151765000Y-55384700D02*
X151765000Y-56849900D01*
X154305000Y-40144700D02*
X154305000Y-42672000D01*
X151765000Y-40144700D02*
X151765000Y-42672000D01*
X146685000Y-40144700D02*
X146685000Y-42672000D01*
X144145000Y-40144700D02*
X144145000Y-42672000D01*
D24*
X160528000Y-39370000D02*
X160528000Y-52958996D01*
X80401000Y-75807370D02*
X80401000Y-77216000D01*
X80401000Y-74676000D02*
X80401000Y-75807370D01*
X80401000Y-77216000D02*
X80401000Y-78347370D01*
X80401000Y-78347370D02*
X80401000Y-79756000D01*
X66050000Y-74676000D02*
X66050000Y-75807370D01*
X66050000Y-75807370D02*
X66050000Y-77216000D01*
X66050000Y-77216000D02*
X66050000Y-79756000D01*
X112913000Y-75807370D02*
X112913000Y-77216000D01*
X112913000Y-74676000D02*
X112913000Y-75807370D01*
X112913000Y-77216000D02*
X112913000Y-78347370D01*
X112913000Y-78347370D02*
X112913000Y-79756000D01*
X98562000Y-74676000D02*
X98562000Y-75807370D01*
X98562000Y-75807370D02*
X98562000Y-77216000D01*
X98562000Y-77216000D02*
X98562000Y-79756000D01*
X145425000Y-75807370D02*
X145425000Y-77216000D01*
X145425000Y-74676000D02*
X145425000Y-75807370D01*
X145425000Y-77216000D02*
X145425000Y-79756000D01*
X131074000Y-75807370D02*
X131074000Y-77216000D01*
X131074000Y-74676000D02*
X131074000Y-75807370D01*
X131074000Y-78347370D02*
X131074000Y-79756000D01*
X131074000Y-77216000D02*
X131074000Y-78347370D01*
X60706000Y-53340002D02*
X60706000Y-65023998D01*
X159385000Y-69596000D02*
X159385000Y-73406000D01*
X60706000Y-73406000D02*
X60706000Y-89154000D01*
X88021000Y-93980000D02*
X88021000Y-96520000D01*
X60706000Y-89154000D02*
X60706000Y-101600000D01*
X88021000Y-96520000D02*
X89408000Y-96520000D01*
X89408000Y-96520000D02*
X89789000Y-96901000D01*
X89789000Y-96901000D02*
X89789000Y-121412000D01*
X84582000Y-123571000D02*
X84582000Y-121372000D01*
X83947000Y-124206000D02*
X84582000Y-123571000D01*
X81350000Y-124206000D02*
X83947000Y-124206000D01*
X159384996Y-89154000D02*
X159384996Y-117347998D01*
X159384996Y-117347998D02*
X159385000Y-117348002D01*
X159384996Y-117347998D02*
X159384996Y-117347998D01*
D23*
X146050000Y-90678000D02*
X147975000Y-90678000D01*
X145425000Y-90053000D02*
X146050000Y-90678000D01*
X145425000Y-87376000D02*
X145425000Y-90053000D01*
X131074000Y-87376000D02*
X131074000Y-90307000D01*
X131445000Y-90678000D02*
X133624000Y-90678000D01*
X131074000Y-90307000D02*
X131445000Y-90678000D01*
X112913000Y-87376000D02*
X112913000Y-89926000D01*
X113665000Y-90678000D02*
X115463000Y-90678000D01*
X112913000Y-89926000D02*
X113665000Y-90678000D01*
X98562000Y-87376000D02*
X98562000Y-90180000D01*
X99060000Y-90678000D02*
X101112000Y-90678000D01*
X98562000Y-90180000D02*
X99060000Y-90678000D01*
X80401000Y-87376000D02*
X80401000Y-89926000D01*
X81153000Y-90678000D02*
X82951000Y-90678000D01*
X80401000Y-89926000D02*
X81153000Y-90678000D01*
X66050000Y-87376000D02*
X66050000Y-89926000D01*
X66929000Y-90805000D02*
X68600000Y-90805000D01*
X66050000Y-89926000D02*
X66929000Y-90805000D01*
X82804000Y-74803000D02*
X82804000Y-72263000D01*
X77216000Y-63754000D02*
X77216000Y-66040000D01*
X100584000Y-72263000D02*
X100584000Y-74549000D01*
X114935000Y-72136000D02*
X114935000Y-74676000D01*
X104902000Y-81026000D02*
X107696000Y-81026000D01*
X132715000Y-109220000D02*
X132715000Y-114554000D01*
X147701000Y-109220000D02*
X147701000Y-114554000D01*
X108331000Y-93980000D02*
X108331000Y-98933000D01*
X127762000Y-72263000D02*
X127762000Y-74548992D01*
X127762000Y-74548992D02*
X127762008Y-74549000D01*
X82550000Y-99187000D02*
X82550000Y-101473000D01*
X82804000Y-106807000D02*
X82804000Y-108839000D01*
X147701000Y-72263000D02*
X147701000Y-74549000D01*
X93345000Y-44069000D02*
X93345000Y-41910000D01*
X93345000Y-53721000D02*
X93345000Y-51435000D01*
X125857000Y-44069000D02*
X125857000Y-41783000D01*
X125857000Y-53721000D02*
X125857000Y-51435000D01*
X136144000Y-96520000D02*
X136144000Y-105410000D01*
X136144000Y-105410000D02*
X136144000Y-105410000D01*
X126365000Y-59309000D02*
X125857000Y-58801000D01*
X126365000Y-105410000D02*
X126365000Y-59309000D01*
X140716000Y-118110000D02*
X140716000Y-108458000D01*
X140716000Y-108458000D02*
X141097000Y-108077000D01*
X141097000Y-108077000D02*
X141097000Y-106045000D01*
X141097000Y-106045000D02*
X140589000Y-105537000D01*
X140589000Y-105537000D02*
X140589000Y-102489000D01*
X140589000Y-102489000D02*
X140843000Y-102235000D01*
X140843000Y-102235000D02*
X140843000Y-97028000D01*
X140335000Y-96520000D02*
X138694000Y-96520000D01*
X140843000Y-97028000D02*
X140335000Y-96520000D01*
X126746000Y-36703000D02*
X125857000Y-36703000D01*
X127635000Y-37592000D02*
X126746000Y-36703000D01*
X127635000Y-58039000D02*
X127635000Y-37592000D01*
X126365000Y-59309000D02*
X127635000Y-58039000D01*
X93980000Y-58801000D02*
X93345000Y-58801000D01*
X94996000Y-57785000D02*
X93980000Y-58801000D01*
X94996000Y-37719000D02*
X94996000Y-57785000D01*
X94107000Y-36830000D02*
X94996000Y-37719000D01*
X93345000Y-36830000D02*
X94107000Y-36830000D01*
X64770000Y-104140000D02*
X66050000Y-104140000D01*
X64389000Y-103759000D02*
X64770000Y-104140000D01*
X64389000Y-85217000D02*
X64389000Y-103759000D01*
X64770000Y-84836000D02*
X64389000Y-85217000D01*
X66050000Y-84836000D02*
X64770000Y-84836000D01*
X66050000Y-104140000D02*
X64516000Y-105674000D01*
X64516000Y-105674000D02*
X64516000Y-126111006D01*
X66110000Y-124206000D02*
X66110000Y-122498002D01*
X88021000Y-106680000D02*
X86487000Y-108214000D01*
X86487000Y-108214000D02*
X86487000Y-122428000D01*
X67183000Y-93980000D02*
X66050000Y-93980000D01*
X67691000Y-94488000D02*
X67183000Y-93980000D01*
X67691000Y-107823000D02*
X67691000Y-94488000D01*
X71247000Y-124149000D02*
X71190000Y-124206000D01*
X71247000Y-118110000D02*
X71247000Y-124149000D01*
X76949290Y-71894710D02*
X76949290Y-96520000D01*
X79248000Y-69596000D02*
X76949290Y-71894710D01*
X80401000Y-69596000D02*
X79248000Y-69596000D01*
X76962000Y-96532710D02*
X76949290Y-96520000D01*
X76962000Y-114046000D02*
X76962000Y-96532710D01*
X76835000Y-114173000D02*
X76962000Y-114046000D01*
X78867000Y-98806000D02*
X79121000Y-99060000D01*
X80401000Y-84836000D02*
X79248000Y-84836000D01*
X79121000Y-99060000D02*
X80401000Y-99060000D01*
X78867000Y-85217000D02*
X78867000Y-98806000D01*
X79248000Y-84836000D02*
X78867000Y-85217000D01*
X81407000Y-99060000D02*
X80401000Y-99060000D01*
X81788000Y-99441000D02*
X81407000Y-99060000D01*
X81788000Y-116148000D02*
X81788000Y-99441000D01*
X81350000Y-116586000D02*
X81788000Y-116148000D01*
X156210000Y-101727000D02*
X156210000Y-111633000D01*
X156083000Y-101600000D02*
X156210000Y-101727000D01*
X127381000Y-111633000D02*
X127381000Y-96774000D01*
X127381000Y-96774000D02*
X127127000Y-96520000D01*
X111506000Y-106680000D02*
X112913000Y-106680000D01*
X111379000Y-106553000D02*
X111506000Y-106680000D01*
X111781630Y-82296000D02*
X110744000Y-83333630D01*
X110744000Y-98806000D02*
X111379000Y-99441000D01*
X112913000Y-82296000D02*
X111781630Y-82296000D01*
X110744000Y-83333630D02*
X110744000Y-98806000D01*
X111379000Y-99441000D02*
X111379000Y-106553000D01*
X151892000Y-99060000D02*
X153045000Y-99060000D01*
X151384000Y-99568000D02*
X151892000Y-99060000D01*
X151384000Y-107950000D02*
X151384000Y-99568000D01*
X118999000Y-99568000D02*
X118999000Y-110362992D01*
X119507000Y-99060000D02*
X118999000Y-99568000D01*
X120533000Y-99060000D02*
X119507000Y-99060000D01*
X99822000Y-104140000D02*
X98562000Y-104140000D01*
X100203008Y-104521008D02*
X99822000Y-104140000D01*
X100203008Y-110362992D02*
X100203008Y-104521008D01*
X110236000Y-99060000D02*
X110617000Y-99441000D01*
X112141000Y-72136000D02*
X111252000Y-73025000D01*
X110617000Y-99441000D02*
X110617000Y-104013000D01*
X112913000Y-72136000D02*
X112141000Y-72136000D01*
X110236000Y-82931000D02*
X110236000Y-99060000D01*
X111252000Y-73025000D02*
X111252000Y-81915000D01*
X111252000Y-81915000D02*
X110236000Y-82931000D01*
X98562000Y-84836000D02*
X97027979Y-86370021D01*
X97027979Y-86370021D02*
X97027979Y-110901733D01*
X97027979Y-110901733D02*
X97027979Y-111386666D01*
X122250183Y-101803183D02*
X122250183Y-111379000D01*
X120533000Y-101600000D02*
X122047000Y-101600000D01*
X122047000Y-101600000D02*
X122250183Y-101803183D01*
X111909800Y-69596000D02*
X110744000Y-70761800D01*
X112913000Y-69596000D02*
X111909800Y-69596000D01*
X109728000Y-99314000D02*
X109855000Y-99441000D01*
X110744000Y-70761800D02*
X110744000Y-81661000D01*
X109855000Y-99441000D02*
X109855000Y-101600000D01*
X109728000Y-82677000D02*
X109728000Y-99314000D01*
X110744000Y-81661000D02*
X109728000Y-82677000D01*
X154178000Y-96520000D02*
X153045000Y-96520000D01*
X154686000Y-97028000D02*
X154178000Y-96520000D01*
X154686000Y-102870000D02*
X154686000Y-97028000D01*
X96393000Y-70761800D02*
X97558800Y-69596000D01*
X95504000Y-109751067D02*
X95504000Y-83686499D01*
X94361000Y-110894067D02*
X95504000Y-109751067D01*
X95504000Y-83686499D02*
X96393000Y-82797499D01*
X97558800Y-69596000D02*
X98562000Y-69596000D01*
X94361000Y-111379000D02*
X94361000Y-110894067D01*
X96393000Y-82797499D02*
X96393000Y-70761800D01*
X123698000Y-113411000D02*
X123698000Y-104139988D01*
X155448000Y-104521000D02*
X155067000Y-104140000D01*
X155067000Y-104140000D02*
X153045000Y-104140000D01*
X155448000Y-113411000D02*
X155448000Y-104521000D01*
X111887000Y-99060000D02*
X112913000Y-99060000D01*
X111277411Y-98450411D02*
X111887000Y-99060000D01*
X112913000Y-84836000D02*
X111277411Y-86471589D01*
X111277411Y-86471589D02*
X111277411Y-98450411D01*
X97762001Y-72935999D02*
X98562000Y-72136000D01*
X96799411Y-82965839D02*
X96799411Y-73898589D01*
X95250000Y-110744000D02*
X96012000Y-109982000D01*
X96799411Y-73898589D02*
X97762001Y-72935999D01*
X95250000Y-111379000D02*
X95250000Y-110744000D01*
X96012000Y-109982000D02*
X96012000Y-83753250D01*
X96012000Y-83753250D02*
X96799411Y-82965839D01*
X122897899Y-106743494D02*
X122923292Y-106718101D01*
X122897899Y-112763290D02*
X122897899Y-106743494D01*
X154051000Y-106680000D02*
X153045000Y-106680000D01*
X154673290Y-107302290D02*
X154051000Y-106680000D01*
X154673290Y-112763290D02*
X154673290Y-107302290D01*
X96520000Y-110236000D02*
X96520000Y-83820000D01*
X96139000Y-111379000D02*
X96139000Y-110617000D01*
X96520000Y-83820000D02*
X98044000Y-82296000D01*
X98044000Y-82296000D02*
X98562000Y-82296000D01*
X96139000Y-110617000D02*
X96520000Y-110236000D01*
X124460000Y-109220000D02*
X124460000Y-112113039D01*
X124460000Y-112113039D02*
X124462541Y-112115580D01*
X100203000Y-99060000D02*
X100203000Y-95250000D01*
X142875000Y-83820000D02*
X143764000Y-82931000D01*
X142875000Y-109220000D02*
X142875000Y-83820000D01*
X143764000Y-82916889D02*
X144384889Y-82296000D01*
X143764000Y-82931000D02*
X143764000Y-82916889D01*
X144384889Y-82296000D02*
X145425000Y-82296000D01*
X145034000Y-104140000D02*
X145425000Y-104140000D01*
X143510000Y-108839000D02*
X143510000Y-105664000D01*
X143510000Y-105664000D02*
X145034000Y-104140000D01*
X142875000Y-109220000D02*
X143129000Y-109220000D01*
X143129000Y-109220000D02*
X143510000Y-108839000D01*
X142113000Y-83693000D02*
X142113000Y-106680000D01*
X143637000Y-82169000D02*
X142113000Y-83693000D01*
X145425000Y-72136000D02*
X144293630Y-72136000D01*
X143637000Y-72792630D02*
X143637000Y-82169000D01*
X144293630Y-72136000D02*
X143637000Y-72792630D01*
X129794000Y-99060000D02*
X131074000Y-99060000D01*
X129413000Y-85365630D02*
X129413000Y-98679000D01*
X131074000Y-84836000D02*
X129942630Y-84836000D01*
X129413000Y-98679000D02*
X129794000Y-99060000D01*
X129942630Y-84836000D02*
X129413000Y-85365630D01*
X141351000Y-83693000D02*
X141351000Y-104140000D01*
X143002000Y-82042000D02*
X141351000Y-83693000D01*
X145425000Y-69596000D02*
X144018000Y-69596000D01*
X143764000Y-69850000D02*
X143764000Y-72009000D01*
X143764000Y-72009000D02*
X143002000Y-72771000D01*
X144018000Y-69596000D02*
X143764000Y-69850000D01*
X143002000Y-72771000D02*
X143002000Y-82042000D01*
X145034000Y-101600000D02*
X145425000Y-101600000D01*
X143637000Y-104140000D02*
X143637000Y-102997000D01*
X143637000Y-102997000D02*
X145034000Y-101600000D01*
X133477000Y-97790000D02*
X133477000Y-98274933D01*
X133477000Y-98274933D02*
X133477000Y-101600000D01*
X128778000Y-70888800D02*
X130070800Y-69596000D01*
X128270000Y-99568000D02*
X127927101Y-99225101D01*
X130070800Y-69596000D02*
X131074000Y-69596000D01*
X128270000Y-101473000D02*
X128270000Y-99568000D01*
X127927101Y-83908899D02*
X128778000Y-83058000D01*
X127927101Y-99225101D02*
X127927101Y-83908899D01*
X128778000Y-83058000D02*
X128778000Y-70888800D01*
X144293630Y-84836000D02*
X143637000Y-85492630D01*
X145425000Y-84836000D02*
X144293630Y-84836000D01*
X143637000Y-85492630D02*
X143637000Y-101600000D01*
X129031966Y-99567966D02*
X129031966Y-104140000D01*
X128397000Y-98933000D02*
X129031966Y-99567966D01*
X131074000Y-72136000D02*
X130175000Y-72136000D01*
X130175000Y-72136000D02*
X129291000Y-73020000D01*
X129291000Y-73020000D02*
X129291000Y-83307000D01*
X128397000Y-84201000D02*
X128397000Y-98933000D01*
X129291000Y-83307000D02*
X128397000Y-84201000D01*
X132715012Y-103504988D02*
X132715012Y-95734933D01*
X131074000Y-104140000D02*
X132080000Y-104140000D01*
X132715012Y-95734933D02*
X132715012Y-95250000D01*
X132080000Y-104140000D02*
X132715012Y-103504988D01*
X130274001Y-105880001D02*
X131074000Y-106680000D01*
X128905000Y-84465000D02*
X128905000Y-98806000D01*
X131074000Y-82296000D02*
X128905000Y-84465000D01*
X128905000Y-98806000D02*
X129794000Y-99695000D01*
X129794000Y-105400000D02*
X130274001Y-105880001D01*
X129794000Y-99695000D02*
X129794000Y-105400000D01*
X86398199Y-105575199D02*
X86398199Y-99529801D01*
X86398199Y-99529801D02*
X86868000Y-99060000D01*
X86868000Y-99060000D02*
X88021000Y-99060000D01*
X78867000Y-108712000D02*
X79375000Y-109220000D01*
X79121000Y-82296000D02*
X78232000Y-83185000D01*
X78232000Y-98806000D02*
X78867000Y-99441000D01*
X79375000Y-109220000D02*
X80401000Y-109220000D01*
X78232000Y-83185000D02*
X78232000Y-98806000D01*
X80401000Y-82296000D02*
X79121000Y-82296000D01*
X78867000Y-99441000D02*
X78867000Y-108712000D01*
X78867000Y-81788000D02*
X77597000Y-83058000D01*
X77978000Y-99314000D02*
X77978000Y-106680000D01*
X77597000Y-98933000D02*
X77978000Y-99314000D01*
X80401000Y-72136000D02*
X78867000Y-73670000D01*
X77597000Y-83058000D02*
X77597000Y-98933000D01*
X78867000Y-73670000D02*
X78867000Y-81788000D01*
X75438000Y-77216000D02*
X73670000Y-77216000D01*
X75946000Y-59944000D02*
X75946000Y-76708000D01*
X72390000Y-50419000D02*
X72771000Y-50800000D01*
X77216000Y-58674000D02*
X75946000Y-59944000D01*
X72390000Y-47752000D02*
X72390000Y-50419000D01*
X77216000Y-52451000D02*
X77216000Y-58674000D01*
X72771000Y-50800000D02*
X75565000Y-50800000D01*
X75565000Y-50800000D02*
X77216000Y-52451000D01*
X75946000Y-76708000D02*
X75438000Y-77216000D01*
X74930000Y-49530000D02*
X77724000Y-52324000D01*
X76454000Y-79248000D02*
X75946000Y-79756000D01*
X77724000Y-58801000D02*
X76454000Y-60071000D01*
X77724000Y-52324000D02*
X77724000Y-58801000D01*
X75946000Y-79756000D02*
X73670000Y-79756000D01*
X76454000Y-60071000D02*
X76454000Y-79248000D01*
X74930000Y-47752000D02*
X74930000Y-49530000D01*
X72390000Y-63754000D02*
X72390000Y-64743949D01*
X71628000Y-68961000D02*
X71628000Y-81661000D01*
X72771000Y-67818000D02*
X71628000Y-68961000D01*
X72263000Y-82296000D02*
X73670000Y-82296000D01*
X72771000Y-65124949D02*
X72771000Y-67818000D01*
X72390000Y-64743949D02*
X72771000Y-65124949D01*
X71628000Y-81661000D02*
X72263000Y-82296000D01*
X68961000Y-69215000D02*
X70485000Y-69215000D01*
X71120000Y-81788000D02*
X72136000Y-82804000D01*
X67310000Y-67564000D02*
X68961000Y-69215000D01*
X71120000Y-69850000D02*
X71120000Y-81788000D01*
X72517000Y-84836000D02*
X73670000Y-84836000D01*
X67310000Y-63754000D02*
X67310000Y-67564000D01*
X72136000Y-82804000D02*
X72136000Y-84455000D01*
X72136000Y-84455000D02*
X72517000Y-84836000D01*
X70485000Y-69215000D02*
X71120000Y-69850000D01*
X70612000Y-81915000D02*
X71628000Y-82931000D01*
X64770000Y-65659000D02*
X68834000Y-69723000D01*
X64770000Y-63754000D02*
X64770000Y-65659000D01*
X72136000Y-87376000D02*
X73670000Y-87376000D01*
X70612000Y-70231000D02*
X70612000Y-81915000D01*
X70104000Y-69723000D02*
X70612000Y-70231000D01*
X71628000Y-82931000D02*
X71628000Y-86868000D01*
X71628000Y-86868000D02*
X72136000Y-87376000D01*
X68834000Y-69723000D02*
X70104000Y-69723000D01*
X75438000Y-71755000D02*
X75057000Y-72136000D01*
X76708000Y-58547000D02*
X75438000Y-59817000D01*
X67310000Y-47752000D02*
X67310000Y-50673000D01*
X76708000Y-52578000D02*
X76708000Y-58547000D01*
X75438000Y-51308000D02*
X76708000Y-52578000D01*
X67945000Y-51308000D02*
X75438000Y-51308000D01*
X75057000Y-72136000D02*
X74801370Y-72136000D01*
X74801370Y-72136000D02*
X73670000Y-72136000D01*
X67310000Y-50673000D02*
X67945000Y-51308000D01*
X75438000Y-59817000D02*
X75438000Y-71755000D01*
X72136000Y-73142000D02*
X72870001Y-73876001D01*
X65405000Y-51816000D02*
X75184000Y-51816000D01*
X72644000Y-70866000D02*
X72136000Y-71374000D01*
X76200000Y-52832000D02*
X76200000Y-58480250D01*
X74549000Y-70866000D02*
X72644000Y-70866000D01*
X72136000Y-71374000D02*
X72136000Y-73142000D01*
X75184000Y-51816000D02*
X76200000Y-52832000D01*
X74930000Y-59750250D02*
X74930000Y-70485000D01*
X72870001Y-73876001D02*
X73670000Y-74676000D01*
X74930000Y-70485000D02*
X74549000Y-70866000D01*
X64770000Y-47752000D02*
X64770000Y-51181000D01*
X64770000Y-51181000D02*
X65405000Y-51816000D01*
X76200000Y-58480250D02*
X74930000Y-59750250D01*
X89789000Y-77216000D02*
X88021000Y-77216000D01*
X90297000Y-76708000D02*
X89789000Y-77216000D01*
X90297000Y-59944000D02*
X90297000Y-76708000D01*
X86741000Y-47752000D02*
X86741000Y-50419000D01*
X86741000Y-50419000D02*
X87122000Y-50800000D01*
X87122000Y-50800000D02*
X88900000Y-50800000D01*
X88900000Y-50800000D02*
X91567000Y-53467000D01*
X91567000Y-53467000D02*
X91567000Y-58674000D01*
X91567000Y-58674000D02*
X90297000Y-59944000D01*
X90297000Y-79756000D02*
X88021000Y-79756000D01*
X90805000Y-60071000D02*
X90805000Y-79248000D01*
X90805000Y-79248000D02*
X90297000Y-79756000D01*
X92075000Y-58801000D02*
X90805000Y-60071000D01*
X92075000Y-53340000D02*
X92075000Y-58801000D01*
X89281000Y-50546000D02*
X92075000Y-53340000D01*
X89281000Y-47752000D02*
X89281000Y-50546000D01*
X86741000Y-64743949D02*
X87122000Y-65124949D01*
X86741000Y-63754000D02*
X86741000Y-64743949D01*
X85979000Y-81661000D02*
X86614000Y-82296000D01*
X87122000Y-65124949D02*
X87122000Y-67818000D01*
X87122000Y-67818000D02*
X85979000Y-68961000D01*
X86614000Y-82296000D02*
X88021000Y-82296000D01*
X85979000Y-68961000D02*
X85979000Y-81661000D01*
X85471000Y-81788000D02*
X86487000Y-82804000D01*
X86868000Y-84836000D02*
X88021000Y-84836000D01*
X85471000Y-69850000D02*
X85471000Y-81788000D01*
X83312000Y-69215000D02*
X84836000Y-69215000D01*
X86487000Y-82804000D02*
X86487000Y-84455000D01*
X81661000Y-63754000D02*
X81661000Y-67564000D01*
X81661000Y-67564000D02*
X83312000Y-69215000D01*
X86487000Y-84455000D02*
X86868000Y-84836000D01*
X84836000Y-69215000D02*
X85471000Y-69850000D01*
X79121000Y-63754000D02*
X79121000Y-65659000D01*
X85979000Y-82931000D02*
X85979000Y-86868000D01*
X85979000Y-86868000D02*
X86487000Y-87376000D01*
X84963000Y-70231000D02*
X84963000Y-81915000D01*
X79121000Y-65659000D02*
X83185000Y-69723000D01*
X86487000Y-87376000D02*
X88021000Y-87376000D01*
X84963000Y-81915000D02*
X85979000Y-82931000D01*
X84455000Y-69723000D02*
X84963000Y-70231000D01*
X83185000Y-69723000D02*
X84455000Y-69723000D01*
X89408000Y-72136000D02*
X89152370Y-72136000D01*
X89789000Y-59817000D02*
X89789000Y-71755000D01*
X89152370Y-72136000D02*
X88021000Y-72136000D01*
X91059000Y-58547000D02*
X89789000Y-59817000D01*
X91059000Y-53533750D02*
X91059000Y-58547000D01*
X88833250Y-51308000D02*
X91059000Y-53533750D01*
X82423000Y-51308000D02*
X88833250Y-51308000D01*
X81661000Y-50546000D02*
X82423000Y-51308000D01*
X89789000Y-71755000D02*
X89408000Y-72136000D01*
X81661000Y-47752000D02*
X81661000Y-50546000D01*
X87221001Y-73876001D02*
X88021000Y-74676000D01*
X86487000Y-73142000D02*
X87221001Y-73876001D01*
X86487000Y-71374000D02*
X86487000Y-73142000D01*
X88900000Y-70866000D02*
X86995000Y-70866000D01*
X89281000Y-59750250D02*
X89281000Y-70485000D01*
X89281000Y-70485000D02*
X88900000Y-70866000D01*
X90551000Y-58480250D02*
X89281000Y-59750250D01*
X88766500Y-51816000D02*
X90551000Y-53600500D01*
X90551000Y-53600500D02*
X90551000Y-58480250D01*
X80137000Y-51816000D02*
X88766500Y-51816000D01*
X86995000Y-70866000D02*
X86487000Y-71374000D01*
X79121000Y-50800000D02*
X80137000Y-51816000D01*
X79121000Y-47752000D02*
X79121000Y-50800000D01*
X107950000Y-77216000D02*
X106182000Y-77216000D01*
X108458000Y-59944000D02*
X108458000Y-76708000D01*
X104902000Y-50419000D02*
X105283000Y-50800000D01*
X109728000Y-58674000D02*
X108458000Y-59944000D01*
X104902000Y-47752000D02*
X104902000Y-50419000D01*
X109728000Y-52451000D02*
X109728000Y-58674000D01*
X105283000Y-50800000D02*
X108077000Y-50800000D01*
X108077000Y-50800000D02*
X109728000Y-52451000D01*
X108458000Y-76708000D02*
X107950000Y-77216000D01*
X107442000Y-49530000D02*
X110236000Y-52324000D01*
X108966000Y-79248000D02*
X108458000Y-79756000D01*
X110236000Y-58801000D02*
X108966000Y-60071000D01*
X110236000Y-52324000D02*
X110236000Y-58801000D01*
X108458000Y-79756000D02*
X106182000Y-79756000D01*
X108966000Y-60071000D02*
X108966000Y-79248000D01*
X107442000Y-47752000D02*
X107442000Y-49530000D01*
X104902000Y-63754000D02*
X104902000Y-64743949D01*
X104140000Y-68961000D02*
X104140000Y-81661000D01*
X105283000Y-67818000D02*
X104140000Y-68961000D01*
X104775000Y-82296000D02*
X106182000Y-82296000D01*
X105283000Y-65124949D02*
X105283000Y-67818000D01*
X104902000Y-64743949D02*
X105283000Y-65124949D01*
X104140000Y-81661000D02*
X104775000Y-82296000D01*
X101473000Y-69215000D02*
X102997000Y-69215000D01*
X103632000Y-81788000D02*
X104648000Y-82804000D01*
X99822000Y-67564000D02*
X101473000Y-69215000D01*
X103632000Y-69850000D02*
X103632000Y-81788000D01*
X105029000Y-84836000D02*
X106182000Y-84836000D01*
X99822000Y-63754000D02*
X99822000Y-67564000D01*
X104648000Y-82804000D02*
X104648000Y-84455000D01*
X104648000Y-84455000D02*
X105029000Y-84836000D01*
X102997000Y-69215000D02*
X103632000Y-69850000D01*
X103124000Y-81915000D02*
X104140000Y-82931000D01*
X97282000Y-65659000D02*
X101346000Y-69723000D01*
X97282000Y-63754000D02*
X97282000Y-65659000D01*
X104648000Y-87376000D02*
X106182000Y-87376000D01*
X103124000Y-70231000D02*
X103124000Y-81915000D01*
X102616000Y-69723000D02*
X103124000Y-70231000D01*
X104140000Y-82931000D02*
X104140000Y-86868000D01*
X104140000Y-86868000D02*
X104648000Y-87376000D01*
X101346000Y-69723000D02*
X102616000Y-69723000D01*
X107950000Y-71755000D02*
X107569000Y-72136000D01*
X109220000Y-58547000D02*
X107950000Y-59817000D01*
X99822000Y-47752000D02*
X99822000Y-50673000D01*
X109220000Y-52578000D02*
X109220000Y-58547000D01*
X107950000Y-51308000D02*
X109220000Y-52578000D01*
X100457000Y-51308000D02*
X107950000Y-51308000D01*
X107569000Y-72136000D02*
X107313370Y-72136000D01*
X107313370Y-72136000D02*
X106182000Y-72136000D01*
X99822000Y-50673000D02*
X100457000Y-51308000D01*
X107950000Y-59817000D02*
X107950000Y-71755000D01*
X104648000Y-73142000D02*
X105382001Y-73876001D01*
X97917000Y-51816000D02*
X107696000Y-51816000D01*
X105156000Y-70866000D02*
X104648000Y-71374000D01*
X108712000Y-52832000D02*
X108712000Y-58480250D01*
X107061000Y-70866000D02*
X105156000Y-70866000D01*
X104648000Y-71374000D02*
X104648000Y-73142000D01*
X107696000Y-51816000D02*
X108712000Y-52832000D01*
X107442000Y-59750250D02*
X107442000Y-70485000D01*
X105382001Y-73876001D02*
X106182000Y-74676000D01*
X107442000Y-70485000D02*
X107061000Y-70866000D01*
X97282000Y-47752000D02*
X97282000Y-51181000D01*
X97282000Y-51181000D02*
X97917000Y-51816000D01*
X108712000Y-58480250D02*
X107442000Y-59750250D01*
X122809000Y-76708000D02*
X122301000Y-77216000D01*
X124079000Y-58674000D02*
X122809000Y-59944000D01*
X122809000Y-59944000D02*
X122809000Y-76708000D01*
X124079000Y-52959000D02*
X124079000Y-58674000D01*
X122301000Y-77216000D02*
X120533000Y-77216000D01*
X121920000Y-50800000D02*
X124079000Y-52959000D01*
X119634000Y-50800000D02*
X121920000Y-50800000D01*
X119253000Y-50419000D02*
X119634000Y-50800000D01*
X119253000Y-47752000D02*
X119253000Y-50419000D01*
X123317000Y-79248000D02*
X122809000Y-79756000D01*
X123317000Y-60071000D02*
X123317000Y-79248000D01*
X122809000Y-79756000D02*
X120533000Y-79756000D01*
X124587000Y-58801000D02*
X123317000Y-60071000D01*
X124587000Y-52832000D02*
X124587000Y-58801000D01*
X121793000Y-50038000D02*
X124587000Y-52832000D01*
X121793000Y-47752000D02*
X121793000Y-50038000D01*
X119253000Y-64743949D02*
X119634000Y-65124949D01*
X119253000Y-63754000D02*
X119253000Y-64743949D01*
X118491000Y-81661000D02*
X119126000Y-82296000D01*
X119634000Y-65124949D02*
X119634000Y-67818000D01*
X119634000Y-67818000D02*
X118491000Y-68961000D01*
X119126000Y-82296000D02*
X120533000Y-82296000D01*
X118491000Y-68961000D02*
X118491000Y-81661000D01*
X117983000Y-81788000D02*
X118999000Y-82804000D01*
X119380000Y-84836000D02*
X120533000Y-84836000D01*
X117983000Y-69850000D02*
X117983000Y-81788000D01*
X115824000Y-69215000D02*
X117348000Y-69215000D01*
X118999000Y-82804000D02*
X118999000Y-84455000D01*
X114173000Y-63754000D02*
X114173000Y-67564000D01*
X114173000Y-67564000D02*
X115824000Y-69215000D01*
X118999000Y-84455000D02*
X119380000Y-84836000D01*
X117348000Y-69215000D02*
X117983000Y-69850000D01*
X111633000Y-63754000D02*
X111633000Y-65659000D01*
X118491000Y-82931000D02*
X118491000Y-86868000D01*
X118491000Y-86868000D02*
X118999000Y-87376000D01*
X117475000Y-70231000D02*
X117475000Y-81915000D01*
X111633000Y-65659000D02*
X115697000Y-69723000D01*
X118999000Y-87376000D02*
X120533000Y-87376000D01*
X117475000Y-81915000D02*
X118491000Y-82931000D01*
X116967000Y-69723000D02*
X117475000Y-70231000D01*
X115697000Y-69723000D02*
X116967000Y-69723000D01*
X121664370Y-72136000D02*
X120533000Y-72136000D01*
X121920000Y-72136000D02*
X121664370Y-72136000D01*
X122301000Y-71755000D02*
X121920000Y-72136000D01*
X122301000Y-59817000D02*
X122301000Y-71755000D01*
X123571000Y-58547000D02*
X122301000Y-59817000D01*
X123571000Y-53213000D02*
X123571000Y-58547000D01*
X121666000Y-51308000D02*
X123571000Y-53213000D01*
X114808000Y-51308000D02*
X121666000Y-51308000D01*
X114173000Y-50673000D02*
X114808000Y-51308000D01*
X114173000Y-47752000D02*
X114173000Y-50673000D01*
X118999000Y-73142000D02*
X119733001Y-73876001D01*
X118999000Y-71374000D02*
X118999000Y-73142000D01*
X121412000Y-70866000D02*
X119507000Y-70866000D01*
X121793000Y-59750250D02*
X121793000Y-70485000D01*
X123063000Y-58480250D02*
X121793000Y-59750250D01*
X123063000Y-53340000D02*
X123063000Y-58480250D01*
X119733001Y-73876001D02*
X120533000Y-74676000D01*
X112268000Y-51816000D02*
X121539000Y-51816000D01*
X121793000Y-70485000D02*
X121412000Y-70866000D01*
X121539000Y-51816000D02*
X123063000Y-53340000D01*
X111633000Y-51181000D02*
X112268000Y-51816000D01*
X119507000Y-70866000D02*
X118999000Y-71374000D01*
X111633000Y-47752000D02*
X111633000Y-51181000D01*
X142240000Y-58674000D02*
X140970000Y-59944000D01*
X140462000Y-77216000D02*
X138694000Y-77216000D01*
X140970000Y-59944000D02*
X140970000Y-76708000D01*
X137414000Y-50419000D02*
X137795000Y-50800000D01*
X137414000Y-47752000D02*
X137414000Y-50419000D01*
X140589000Y-50800000D02*
X142240000Y-52451000D01*
X140970000Y-76708000D02*
X140462000Y-77216000D01*
X142240000Y-52451000D02*
X142240000Y-58674000D01*
X137795000Y-50800000D02*
X140589000Y-50800000D01*
X139954000Y-49530000D02*
X142748000Y-52324000D01*
X139954000Y-47752000D02*
X139954000Y-49530000D01*
X140970000Y-79756000D02*
X138694000Y-79756000D01*
X142748000Y-52324000D02*
X142748000Y-58801000D01*
X141478000Y-60071000D02*
X141478000Y-79248000D01*
X141478000Y-79248000D02*
X140970000Y-79756000D01*
X142748000Y-58801000D02*
X141478000Y-60071000D01*
X137414000Y-64743949D02*
X137795000Y-65124949D01*
X137287000Y-82296000D02*
X138694000Y-82296000D01*
X137795000Y-65124949D02*
X137795000Y-67818000D01*
X136652000Y-81661000D02*
X137287000Y-82296000D01*
X137795000Y-67818000D02*
X136652000Y-68961000D01*
X137414000Y-63754000D02*
X137414000Y-64743949D01*
X136652000Y-68961000D02*
X136652000Y-81661000D01*
X137541000Y-84836000D02*
X138694000Y-84836000D01*
X136144000Y-81788000D02*
X137160000Y-82804000D01*
X133985000Y-69215000D02*
X135509000Y-69215000D01*
X137160000Y-84455000D02*
X137541000Y-84836000D01*
X132334000Y-67564000D02*
X133985000Y-69215000D01*
X132334000Y-63754000D02*
X132334000Y-67564000D01*
X137160000Y-82804000D02*
X137160000Y-84455000D01*
X136144000Y-69850000D02*
X136144000Y-81788000D01*
X135509000Y-69215000D02*
X136144000Y-69850000D01*
X133858000Y-69723000D02*
X135128000Y-69723000D01*
X135636000Y-70231000D02*
X135636000Y-81915000D01*
X135128000Y-69723000D02*
X135636000Y-70231000D01*
X135636000Y-81915000D02*
X136652000Y-82931000D01*
X137160000Y-87376000D02*
X138694000Y-87376000D01*
X136652000Y-86868000D02*
X137160000Y-87376000D01*
X136652000Y-82931000D02*
X136652000Y-86868000D01*
X129794000Y-63754000D02*
X129794000Y-65659000D01*
X129794000Y-65659000D02*
X133858000Y-69723000D01*
X140462000Y-71755000D02*
X140081000Y-72136000D01*
X140081000Y-72136000D02*
X139825370Y-72136000D01*
X132334000Y-50673000D02*
X132969000Y-51308000D01*
X140462000Y-59817000D02*
X140462000Y-71755000D01*
X141732000Y-52578000D02*
X141732000Y-58547000D01*
X139825370Y-72136000D02*
X138694000Y-72136000D01*
X140462000Y-51308000D02*
X141732000Y-52578000D01*
X141732000Y-58547000D02*
X140462000Y-59817000D01*
X132334000Y-47752000D02*
X132334000Y-50673000D01*
X132969000Y-51308000D02*
X140462000Y-51308000D01*
X140208000Y-51816000D02*
X141224000Y-52832000D01*
X137160000Y-73142000D02*
X137894001Y-73876001D01*
X137668000Y-70866000D02*
X137160000Y-71374000D01*
X139954000Y-59750250D02*
X139954000Y-70485000D01*
X139954000Y-70485000D02*
X139573000Y-70866000D01*
X139573000Y-70866000D02*
X137668000Y-70866000D01*
X129794000Y-47752000D02*
X129794000Y-51181000D01*
X141224000Y-58480250D02*
X139954000Y-59750250D01*
X129794000Y-51181000D02*
X130429000Y-51816000D01*
X130429000Y-51816000D02*
X140208000Y-51816000D01*
X137894001Y-73876001D02*
X138694000Y-74676000D01*
X141224000Y-52832000D02*
X141224000Y-58480250D01*
X137160000Y-71374000D02*
X137160000Y-73142000D01*
X155321000Y-59944000D02*
X155321000Y-76708000D01*
X156591000Y-58674000D02*
X155321000Y-59944000D01*
X151765000Y-50419000D02*
X152146000Y-50800000D01*
X154813000Y-77216000D02*
X153045000Y-77216000D01*
X151765000Y-47752000D02*
X151765000Y-50419000D01*
X154940000Y-50800000D02*
X156591000Y-52451000D01*
X155321000Y-76708000D02*
X154813000Y-77216000D01*
X152146000Y-50800000D02*
X154940000Y-50800000D01*
X156591000Y-52451000D02*
X156591000Y-58674000D01*
X155829000Y-79248000D02*
X155321000Y-79756000D01*
X154305000Y-49530000D02*
X157099000Y-52324000D01*
X155829000Y-60071000D02*
X155829000Y-79248000D01*
X154305000Y-47752000D02*
X154305000Y-49530000D01*
X157099000Y-58801000D02*
X155829000Y-60071000D01*
X155321000Y-79756000D02*
X153045000Y-79756000D01*
X157099000Y-52324000D02*
X157099000Y-58801000D01*
X151765000Y-64743949D02*
X152146000Y-65124949D01*
X151765000Y-63754000D02*
X151765000Y-64743949D01*
X152146000Y-65124949D02*
X152146000Y-67818000D01*
X152146000Y-67818000D02*
X151003000Y-68961000D01*
X151003000Y-68961000D02*
X151003000Y-81661000D01*
X151638000Y-82296000D02*
X153045000Y-82296000D01*
X151003000Y-81661000D02*
X151638000Y-82296000D01*
X150495000Y-69850000D02*
X150495000Y-81788000D01*
X151892000Y-84836000D02*
X153045000Y-84836000D01*
X149860000Y-69215000D02*
X150495000Y-69850000D01*
X150495000Y-81788000D02*
X151511000Y-82804000D01*
X148336000Y-69215000D02*
X149860000Y-69215000D01*
X151511000Y-82804000D02*
X151511000Y-84455000D01*
X146685000Y-63754000D02*
X146685000Y-67564000D01*
X146685000Y-67564000D02*
X148336000Y-69215000D01*
X151511000Y-84455000D02*
X151892000Y-84836000D01*
X151511000Y-87376000D02*
X153045000Y-87376000D01*
X149987000Y-81915000D02*
X151003000Y-82931000D01*
X144145000Y-65659000D02*
X148209000Y-69723000D01*
X151003000Y-86868000D02*
X151511000Y-87376000D01*
X144145000Y-63754000D02*
X144145000Y-65659000D01*
X148209000Y-69723000D02*
X149479000Y-69723000D01*
X151003000Y-82931000D02*
X151003000Y-86868000D01*
X149987000Y-70231000D02*
X149987000Y-81915000D01*
X149479000Y-69723000D02*
X149987000Y-70231000D01*
X154176370Y-72136000D02*
X153045000Y-72136000D01*
X154432000Y-72136000D02*
X154176370Y-72136000D01*
X154813000Y-59817000D02*
X154813000Y-71755000D01*
X146685000Y-50673000D02*
X147320000Y-51308000D01*
X154813000Y-71755000D02*
X154432000Y-72136000D01*
X156083000Y-58547000D02*
X154813000Y-59817000D01*
X146685000Y-47752000D02*
X146685000Y-50673000D01*
X147320000Y-51308000D02*
X154813000Y-51308000D01*
X154813000Y-51308000D02*
X156083000Y-52578000D01*
X156083000Y-52578000D02*
X156083000Y-58547000D01*
X151511000Y-71374000D02*
X151511000Y-73142000D01*
X144145000Y-47752000D02*
X144145000Y-51181000D01*
X153924000Y-70866000D02*
X152019000Y-70866000D01*
X144780000Y-51816000D02*
X154559000Y-51816000D01*
X155575000Y-52832000D02*
X155575000Y-58480250D01*
X152019000Y-70866000D02*
X151511000Y-71374000D01*
X151511000Y-73142000D02*
X152245001Y-73876001D01*
X154305000Y-59750250D02*
X154305000Y-70485000D01*
X152245001Y-73876001D02*
X153045000Y-74676000D01*
X155575000Y-58480250D02*
X154305000Y-59750250D01*
X144145000Y-51181000D02*
X144780000Y-51816000D01*
X154305000Y-70485000D02*
X153924000Y-70866000D01*
X154559000Y-51816000D02*
X155575000Y-52832000D01*
X137033000Y-93980000D02*
X137033000Y-94464933D01*
X137033000Y-94464933D02*
X137033000Y-97399000D01*
X137033000Y-97399000D02*
X137033000Y-99060000D01*
X140081000Y-99060000D02*
X140081000Y-107569000D01*
X134239000Y-100330000D02*
X134239000Y-96520000D01*
X98562000Y-101600000D02*
X100584000Y-101600000D01*
X101473000Y-102489000D02*
X101473000Y-120269000D01*
X100584000Y-101600000D02*
X101473000Y-102489000D01*
X104394000Y-94551500D02*
X104394000Y-120269000D01*
X103822500Y-93980000D02*
X103822500Y-93980000D01*
X103822500Y-93980000D02*
X104394000Y-94551500D01*
M02*
